NotoSerifArmenian-CondensedBold.ufo
<glyph name="dieresiscomb" format="2">
  <unicode hex="0308"/>
  <anchor x="-2" y="536" name="_top"/>
  <outline>
    <contour>
      <point x="90" y="621" type="curve" smooth="yes"/>
      <point x="119" y="621"/>
      <point x="151" y="639"/>
      <point x="151" y="689" type="curve" smooth="yes"/>
      <point x="151" y="740"/>
      <point x="119" y="758"/>
      <point x="90" y="758" type="curve" smooth="yes"/>
      <point x="57" y="758"/>
      <point x="27" y="740"/>
      <point x="27" y="689" type="curve" smooth="yes"/>
      <point x="27" y="639"/>
      <point x="57" y="621"/>
    </contour>
    <contour>
      <point x="-94" y="621" type="curve" smooth="yes"/>
      <point x="-63" y="621"/>
      <point x="-31" y="639"/>
      <point x="-31" y="689" type="curve" smooth="yes"/>
      <point x="-31" y="740"/>
      <point x="-63" y="758"/>
      <point x="-94" y="758" type="curve" smooth="yes"/>
      <point x="-125" y="758"/>
      <point x="-155" y="740"/>
      <point x="-155" y="689" type="curve" smooth="yes"/>
      <point x="-155" y="639"/>
      <point x="-125" y="621"/>
    </contour>
  </outline>
</glyph>
<glyph name="uni0531" format="2">
  <advance width="829"/>
  <unicode hex="0531"/>
  <note>
uni0531
</note>
  <anchor x="334" y="714" name="top"/>
  <outline>
    <contour>
      <point x="367" y="714" type="line"/>
      <point x="367" y="658" type="line"/>
      <point x="397" y="658"/>
      <point x="421" y="651"/>
      <point x="421" y="599" type="curve" smooth="yes"/>
      <point x="421" y="216" type="line" smooth="yes"/>
      <point x="421" y="111"/>
      <point x="388" y="64"/>
      <point x="337" y="64" type="curve" smooth="yes"/>
      <point x="273" y="64"/>
      <point x="247" y="99"/>
      <point x="247" y="210" type="curve" smooth="yes"/>
      <point x="247" y="714" type="line"/>
      <point x="26" y="714" type="line"/>
      <point x="26" y="658" type="line"/>
      <point x="66" y="658"/>
      <point x="80" y="653"/>
      <point x="80" y="599" type="curve" smooth="yes"/>
      <point x="80" y="218" type="line" smooth="yes"/>
      <point x="80" y="54"/>
      <point x="176" y="-10"/>
      <point x="336" y="-10" type="curve" smooth="yes"/>
      <point x="519" y="-10"/>
      <point x="588" y="80"/>
      <point x="588" y="214" type="curve" smooth="yes"/>
      <point x="588" y="714" type="line"/>
    </contour>
    <contour>
      <point x="581" y="257" type="curve"/>
      <point x="579" y="188" type="line"/>
      <point x="584" y="190"/>
      <point x="597" y="192"/>
      <point x="603" y="192" type="curve" smooth="yes"/>
      <point x="641" y="192"/>
      <point x="649" y="177"/>
      <point x="649" y="87" type="curve" smooth="yes"/>
      <point x="649" y="0" type="line"/>
      <point x="813" y="0" type="line"/>
      <point x="813" y="84" type="line" smooth="yes"/>
      <point x="813" y="217"/>
      <point x="767" y="264"/>
      <point x="655" y="264" type="curve" smooth="yes"/>
      <point x="620" y="264"/>
      <point x="603" y="260"/>
    </contour>
  </outline>
</glyph>
<glyph name="uni0533" format="2">
  <advance width="718"/>
  <unicode hex="0533"/>
  <note>
uni0533
</note>
  <outline>
    <contour>
      <point x="383" y="0" type="line"/>
      <point x="604" y="0" type="line"/>
      <point x="604" y="56" type="line"/>
      <point x="564" y="56"/>
      <point x="550" y="61"/>
      <point x="550" y="115" type="curve" smooth="yes"/>
      <point x="550" y="496" type="line" smooth="yes"/>
      <point x="550" y="660"/>
      <point x="451" y="724"/>
      <point x="291" y="724" type="curve" smooth="yes"/>
      <point x="113" y="724"/>
      <point x="42" y="634"/>
      <point x="42" y="500" type="curve" smooth="yes"/>
      <point x="42" y="352"/>
      <point x="119" y="285"/>
      <point x="291" y="285" type="curve" smooth="yes"/>
      <point x="383" y="285" type="line"/>
    </contour>
    <contour>
      <point x="293" y="349" type="line" smooth="yes"/>
      <point x="238" y="349"/>
      <point x="209" y="403"/>
      <point x="209" y="498" type="curve" smooth="yes"/>
      <point x="209" y="603"/>
      <point x="242" y="650"/>
      <point x="293" y="650" type="curve" smooth="yes"/>
      <point x="357" y="650"/>
      <point x="383" y="615"/>
      <point x="383" y="504" type="curve" smooth="yes"/>
      <point x="383" y="349" type="line"/>
    </contour>
    <contour>
      <point x="533" y="285" type="line"/>
      <point x="714" y="285" type="line"/>
      <point x="714" y="349" type="line"/>
      <point x="533" y="349" type="line"/>
    </contour>
  </outline>
</glyph>
<glyph name="uni0534" format="2">
  <advance width="730"/>
  <unicode hex="0534"/>
  <note>
uni0534
</note>
  <outline>
    <contour>
      <point x="54" y="340" type="line"/>
      <point x="221" y="340" type="line"/>
      <point x="221" y="498" type="line" smooth="yes"/>
      <point x="221" y="603"/>
      <point x="254" y="650"/>
      <point x="305" y="650" type="curve" smooth="yes"/>
      <point x="369" y="650"/>
      <point x="395" y="615"/>
      <point x="395" y="504" type="curve" smooth="yes"/>
      <point x="395" y="0" type="line"/>
      <point x="616" y="0" type="line"/>
      <point x="616" y="56" type="line"/>
      <point x="576" y="56"/>
      <point x="562" y="61"/>
      <point x="562" y="115" type="curve" smooth="yes"/>
      <point x="562" y="496" type="line" smooth="yes"/>
      <point x="562" y="660"/>
      <point x="463" y="724"/>
      <point x="303" y="724" type="curve" smooth="yes"/>
      <point x="120" y="724"/>
      <point x="54" y="634"/>
      <point x="54" y="500" type="curve" smooth="yes"/>
    </contour>
    <contour>
      <point x="545" y="285" type="line"/>
      <point x="726" y="285" type="line"/>
      <point x="726" y="349" type="line"/>
      <point x="545" y="349" type="line"/>
    </contour>
  </outline>
</glyph>
<glyph name="uni0535" format="2">
  <advance width="636"/>
  <unicode hex="0535"/>
  <note>
uni0535
</note>
  <outline>
    <contour>
      <point x="338" y="-10" type="curve" smooth="yes"/>
      <point x="521" y="-10"/>
      <point x="588" y="80"/>
      <point x="588" y="214" type="curve" smooth="yes"/>
      <point x="588" y="289" type="line"/>
      <point x="421" y="289" type="line"/>
      <point x="421" y="216" type="line" smooth="yes"/>
      <point x="421" y="111"/>
      <point x="388" y="64"/>
      <point x="337" y="64" type="curve" smooth="yes"/>
      <point x="273" y="64"/>
      <point x="247" y="99"/>
      <point x="247" y="210" type="curve" smooth="yes"/>
      <point x="247" y="714" type="line"/>
      <point x="26" y="714" type="line"/>
      <point x="26" y="658" type="line"/>
      <point x="66" y="658"/>
      <point x="80" y="653"/>
      <point x="80" y="599" type="curve" smooth="yes"/>
      <point x="80" y="218" type="line" smooth="yes"/>
      <point x="80" y="54"/>
      <point x="178" y="-10"/>
    </contour>
    <contour>
      <point x="227" y="427" type="line"/>
      <point x="578" y="427" type="line"/>
      <point x="578" y="491" type="line"/>
      <point x="227" y="491" type="line"/>
    </contour>
  </outline>
</glyph>
<glyph name="uni0536" format="2">
  <advance width="592"/>
  <unicode hex="0536"/>
  <note>
uni0536
</note>
  <outline>
    <contour>
      <point x="272" y="278" type="curve" smooth="yes"/>
      <point x="420" y="278"/>
      <point x="541" y="367"/>
      <point x="541" y="484" type="curve" smooth="yes"/>
      <point x="541" y="642"/>
      <point x="427" y="723"/>
      <point x="287" y="723" type="curve" smooth="yes"/>
      <point x="142" y="723"/>
      <point x="36" y="636"/>
      <point x="36" y="494" type="curve" smooth="yes"/>
      <point x="36" y="358"/>
      <point x="127" y="278"/>
    </contour>
    <contour>
      <point x="49" y="0" type="line"/>
      <point x="209" y="0" type="line"/>
      <point x="209" y="203" type="line"/>
      <point x="49" y="203" type="line"/>
    </contour>
    <contour>
      <point x="398" y="0" type="line"/>
      <point x="565" y="0" type="line"/>
      <point x="565" y="14" type="line" smooth="yes"/>
      <point x="565" y="111"/>
      <point x="513" y="152"/>
      <point x="392" y="152" type="curve" smooth="yes"/>
      <point x="129" y="152" type="line"/>
      <point x="129" y="88" type="line"/>
      <point x="321" y="88" type="line" smooth="yes"/>
      <point x="383" y="88"/>
      <point x="398" y="71"/>
      <point x="398" y="17" type="curve" smooth="yes"/>
    </contour>
    <contour>
      <point x="203" y="92" type="line"/>
      <point x="405" y="108"/>
      <point x="541" y="238"/>
      <point x="541" y="484" type="curve"/>
      <point x="372" y="484" type="line"/>
      <point x="372" y="235"/>
      <point x="323" y="152"/>
      <point x="203" y="152" type="curve"/>
    </contour>
    <contour>
      <point x="289" y="346" type="curve" smooth="yes"/>
      <point x="244" y="346"/>
      <point x="213" y="394"/>
      <point x="213" y="494" type="curve" smooth="yes"/>
      <point x="213" y="605"/>
      <point x="246" y="655"/>
      <point x="287" y="655" type="curve" smooth="yes"/>
      <point x="330" y="655"/>
      <point x="364" y="607"/>
      <point x="364" y="506" type="curve" smooth="yes"/>
      <point x="364" y="395"/>
      <point x="329" y="346"/>
    </contour>
  </outline>
</glyph>
<glyph name="uni0537" format="2">
  <advance width="556"/>
  <unicode hex="0537"/>
  <note>
uni0537
</note>
  <outline>
    <contour>
      <point x="247" y="70" type="line"/>
      <point x="247" y="714" type="line"/>
      <point x="26" y="714" type="line"/>
      <point x="26" y="658" type="line"/>
      <point x="66" y="658"/>
      <point x="80" y="653"/>
      <point x="80" y="599" type="curve" smooth="yes"/>
      <point x="80" y="0" type="line"/>
    </contour>
    <contour>
      <point x="227" y="427" type="line"/>
      <point x="508" y="427" type="line"/>
      <point x="508" y="491" type="line"/>
      <point x="227" y="491" type="line"/>
    </contour>
    <contour>
      <point x="342" y="114" type="curve" smooth="yes"/>
      <point x="275" y="114"/>
      <point x="203" y="97"/>
      <point x="80" y="53" type="curve"/>
      <point x="80" y="0" type="line"/>
      <point x="144" y="22"/>
      <point x="228" y="40"/>
      <point x="271" y="40" type="curve" smooth="yes"/>
      <point x="329" y="40"/>
      <point x="347" y="19"/>
      <point x="347" y="-32" type="curve" smooth="yes"/>
      <point x="347" y="-62" type="line"/>
      <point x="514" y="-62" type="line"/>
      <point x="514" y="-32" type="line" smooth="yes"/>
      <point x="514" y="65"/>
      <point x="460" y="114"/>
    </contour>
  </outline>
</glyph>
<glyph name="uni0538" format="2">
  <advance width="640"/>
  <unicode hex="0538"/>
  <note>
uni0538
</note>
  <outline>
    <contour>
      <point x="331" y="724" type="curve" smooth="yes"/>
      <point x="148" y="724"/>
      <point x="78" y="634"/>
      <point x="78" y="500" type="curve" smooth="yes"/>
      <point x="78" y="0" type="line"/>
      <point x="245" y="0" type="line"/>
      <point x="245" y="498" type="line" smooth="yes"/>
      <point x="245" y="603"/>
      <point x="278" y="650"/>
      <point x="329" y="650" type="curve" smooth="yes"/>
      <point x="393" y="650"/>
      <point x="419" y="615"/>
      <point x="419" y="504" type="curve" smooth="yes"/>
      <point x="419" y="420" type="line"/>
      <point x="586" y="420" type="line"/>
      <point x="586" y="496" type="line" smooth="yes"/>
      <point x="586" y="660"/>
      <point x="491" y="724"/>
    </contour>
    <contour>
      <point x="227" y="0" type="line"/>
      <point x="578" y="0" type="line"/>
      <point x="578" y="64" type="line"/>
      <point x="227" y="64" type="line"/>
    </contour>
  </outline>
</glyph>
<glyph name="uni0539" format="2">
  <advance width="772"/>
  <unicode hex="0539"/>
  <note>
uni0539
</note>
  <outline>
    <contour>
      <point x="299" y="0" type="line"/>
      <point x="299" y="56" type="line"/>
      <point x="269" y="56"/>
      <point x="245" y="63"/>
      <point x="245" y="115" type="curve" smooth="yes"/>
      <point x="245" y="498" type="line" smooth="yes"/>
      <point x="245" y="603"/>
      <point x="301" y="650"/>
      <point x="387" y="650" type="curve" smooth="yes"/>
      <point x="496" y="650"/>
      <point x="540" y="600"/>
      <point x="540" y="474" type="curve"/>
      <point x="707" y="464" type="line"/>
      <point x="707" y="643"/>
      <point x="589" y="724"/>
      <point x="391" y="724" type="curve" smooth="yes"/>
      <point x="165" y="724"/>
      <point x="78" y="634"/>
      <point x="78" y="500" type="curve" smooth="yes"/>
      <point x="78" y="0" type="line"/>
    </contour>
    <contour>
      <point x="504" y="419" type="curve" smooth="yes"/>
      <point x="540" y="419" type="line"/>
      <point x="540" y="219"/>
      <point x="535" y="189"/>
      <point x="495" y="189" type="curve" smooth="yes"/>
      <point x="460" y="189"/>
      <point x="457" y="223"/>
      <point x="457" y="301" type="curve" smooth="yes"/>
      <point x="457" y="375"/>
      <point x="471" y="419"/>
    </contour>
    <contour>
      <point x="768" y="483" type="line"/>
      <point x="474" y="483" type="line" smooth="yes"/>
      <point x="358" y="483"/>
      <point x="305" y="413"/>
      <point x="305" y="312" type="curve" smooth="yes"/>
      <point x="305" y="194"/>
      <point x="359" y="126"/>
      <point x="496" y="126" type="curve" smooth="yes"/>
      <point x="635" y="126"/>
      <point x="707" y="220"/>
      <point x="707" y="419" type="curve"/>
      <point x="768" y="419" type="line"/>
    </contour>
  </outline>
</glyph>
<glyph name="uni053A" format="2">
  <advance width="688"/>
  <unicode hex="053A"/>
  <note>
uni053A
</note>
  <outline>
    <contour>
      <point x="291" y="-10" type="curve" smooth="yes"/>
      <point x="451" y="-10"/>
      <point x="550" y="54"/>
      <point x="550" y="218" type="curve" smooth="yes"/>
      <point x="550" y="714" type="line"/>
      <point x="329" y="714" type="line"/>
      <point x="329" y="658" type="line"/>
      <point x="369" y="658"/>
      <point x="383" y="653"/>
      <point x="383" y="599" type="curve" smooth="yes"/>
      <point x="383" y="465" type="line"/>
      <point x="313" y="465" type="line" smooth="yes"/>
      <point x="119" y="465"/>
      <point x="42" y="403"/>
      <point x="42" y="232" type="curve" smooth="yes"/>
      <point x="42" y="87"/>
      <point x="113" y="-10"/>
    </contour>
    <contour>
      <point x="293" y="64" type="curve" smooth="yes"/>
      <point x="242" y="64"/>
      <point x="209" y="108"/>
      <point x="209" y="234" type="curve" smooth="yes"/>
      <point x="209" y="361"/>
      <point x="238" y="401"/>
      <point x="315" y="401" type="curve" smooth="yes"/>
      <point x="383" y="401" type="line"/>
      <point x="383" y="227" type="line" smooth="yes"/>
      <point x="383" y="103"/>
      <point x="353" y="64"/>
    </contour>
    <contour>
      <point x="533" y="465" type="line"/>
      <point x="533" y="401" type="line"/>
      <point x="684" y="401" type="line"/>
      <point x="684" y="465" type="line"/>
    </contour>
  </outline>
</glyph>
<glyph name="uni053B" format="2">
  <advance width="604"/>
  <unicode hex="053B"/>
  <note>
uni053B
</note>
  <outline>
    <contour>
      <point x="247" y="316" type="line" smooth="yes"/>
      <point x="247" y="403"/>
      <point x="278" y="458"/>
      <point x="321" y="458" type="curve" smooth="yes"/>
      <point x="374" y="458"/>
      <point x="389" y="423"/>
      <point x="389" y="362" type="curve" smooth="yes"/>
      <point x="389" y="276" type="line"/>
      <point x="556" y="276" type="line"/>
      <point x="556" y="364" type="line" smooth="yes"/>
      <point x="556" y="498"/>
      <point x="494" y="554"/>
      <point x="384" y="554" type="curve" smooth="yes"/>
      <point x="329" y="554"/>
      <point x="283" y="531"/>
      <point x="247" y="482" type="curve"/>
      <point x="243" y="482" type="line"/>
      <point x="245" y="506"/>
      <point x="247" y="530"/>
      <point x="247" y="554" type="curve" smooth="yes"/>
      <point x="247" y="714" type="line"/>
      <point x="26" y="714" type="line"/>
      <point x="26" y="658" type="line"/>
      <point x="66" y="658"/>
      <point x="80" y="653"/>
      <point x="80" y="599" type="curve" smooth="yes"/>
      <point x="80" y="0" type="line"/>
      <point x="301" y="0" type="line"/>
      <point x="301" y="56" type="line"/>
      <point x="271" y="56"/>
      <point x="247" y="63"/>
      <point x="247" y="115" type="curve" smooth="yes"/>
    </contour>
  </outline>
</glyph>
<glyph name="uni053C" format="2">
  <advance width="523"/>
  <unicode hex="053C"/>
  <note>
uni053C
</note>
  <outline>
    <contour>
      <point x="515" y="111" type="line"/>
      <point x="460" y="111" type="line"/>
      <point x="460" y="74"/>
      <point x="458" y="64"/>
      <point x="424" y="64" type="curve" smooth="yes"/>
      <point x="247" y="64" type="line"/>
      <point x="247" y="714" type="line"/>
      <point x="26" y="714" type="line"/>
      <point x="26" y="661" type="line"/>
      <point x="68" y="661"/>
      <point x="80" y="650"/>
      <point x="80" y="599" type="curve" smooth="yes"/>
      <point x="80" y="0" type="line"/>
      <point x="515" y="0" type="line"/>
    </contour>
  </outline>
</glyph>
<glyph name="uni053D" format="2">
  <advance width="873"/>
  <unicode hex="053D"/>
  <note>
uni053D
</note>
  <outline>
    <contour>
      <point x="245" y="115" type="curve" smooth="yes"/>
      <point x="245" y="714" type="line"/>
      <point x="26" y="714" type="line"/>
      <point x="26" y="658" type="line"/>
      <point x="66" y="658"/>
      <point x="78" y="653"/>
      <point x="78" y="599" type="curve" smooth="yes"/>
      <point x="78" y="0" type="line"/>
      <point x="299" y="0" type="line"/>
      <point x="299" y="56" type="line"/>
      <point x="269" y="56"/>
      <point x="245" y="63"/>
    </contour>
    <contour>
      <point x="615" y="504" type="line"/>
      <point x="641" y="504"/>
      <point x="658" y="494"/>
      <point x="658" y="461" type="curve" smooth="yes"/>
      <point x="658" y="339" type="line" smooth="yes"/>
      <point x="658" y="260"/>
      <point x="642" y="223"/>
      <point x="594" y="223" type="curve" smooth="yes"/>
      <point x="544" y="223"/>
      <point x="530" y="262"/>
      <point x="530" y="339" type="curve" smooth="yes"/>
      <point x="530" y="560" type="line"/>
      <point x="223" y="560" type="line"/>
      <point x="223" y="496" type="line"/>
      <point x="363" y="496" type="line"/>
      <point x="363" y="338" type="line" smooth="yes"/>
      <point x="363" y="218"/>
      <point x="463" y="157"/>
      <point x="594" y="157" type="curve" smooth="yes"/>
      <point x="723" y="157"/>
      <point x="825" y="218"/>
      <point x="825" y="339" type="curve" smooth="yes"/>
      <point x="825" y="560" type="line"/>
      <point x="615" y="560" type="line"/>
    </contour>
  </outline>
</glyph>
<glyph name="uni053E" format="2">
  <advance width="680"/>
  <unicode hex="053E"/>
  <note>
uni053E
</note>
  <outline>
    <contour>
      <point x="264" y="596" type="curve" smooth="yes"/>
      <point x="196" y="609"/>
      <point x="179" y="645"/>
      <point x="179" y="714" type="curve"/>
      <point x="12" y="714" type="line"/>
      <point x="12" y="611"/>
      <point x="75" y="558"/>
      <point x="201" y="541" type="curve" smooth="yes"/>
      <point x="383" y="516"/>
      <point x="452" y="433"/>
      <point x="452" y="280" type="curve" smooth="yes"/>
      <point x="452" y="132"/>
      <point x="408" y="58"/>
      <point x="333" y="58" type="curve" smooth="yes"/>
      <point x="250" y="58"/>
      <point x="220" y="143"/>
      <point x="220" y="260" type="curve" smooth="yes"/>
      <point x="220" y="455"/>
      <point x="342" y="648"/>
      <point x="465" y="648" type="curve" smooth="yes"/>
      <point x="523" y="648"/>
      <point x="552" y="611"/>
      <point x="552" y="536" type="curve"/>
      <point x="635" y="536"/>
      <point x="695" y="572"/>
      <point x="695" y="623" type="curve" smooth="yes"/>
      <point x="695" y="684"/>
      <point x="637" y="724"/>
      <point x="533" y="724" type="curve" smooth="yes"/>
      <point x="271" y="724"/>
      <point x="43" y="471"/>
      <point x="43" y="266" type="curve" smooth="yes"/>
      <point x="43" y="100"/>
      <point x="135" y="-10"/>
      <point x="333" y="-10" type="curve" smooth="yes"/>
      <point x="507" y="-10"/>
      <point x="629" y="95"/>
      <point x="629" y="281" type="curve" smooth="yes"/>
      <point x="629" y="443"/>
      <point x="528" y="546"/>
    </contour>
  </outline>
</glyph>
<glyph name="uni053F" format="2">
  <advance width="632"/>
  <unicode hex="053F"/>
  <note>
uni053F
</note>
  <outline>
    <contour>
      <point x="385" y="0" type="line"/>
      <point x="606" y="0" type="line"/>
      <point x="606" y="56" type="line"/>
      <point x="566" y="56"/>
      <point x="552" y="61"/>
      <point x="552" y="115" type="curve" smooth="yes"/>
      <point x="552" y="484" type="line"/>
      <point x="334" y="484" type="line"/>
      <point x="334" y="428" type="line"/>
      <point x="364" y="428"/>
      <point x="385" y="421"/>
      <point x="385" y="369" type="curve" smooth="yes"/>
      <point x="385" y="338" type="line" smooth="yes"/>
      <point x="385" y="292"/>
      <point x="356" y="246"/>
      <point x="311" y="246" type="curve" smooth="yes"/>
      <point x="257" y="246"/>
      <point x="243" y="282"/>
      <point x="243" y="342" type="curve" smooth="yes"/>
      <point x="243" y="714" type="line"/>
      <point x="22" y="714" type="line"/>
      <point x="22" y="658" type="line"/>
      <point x="52" y="658"/>
      <point x="76" y="651"/>
      <point x="76" y="599" type="curve" smooth="yes"/>
      <point x="76" y="340" type="line"/>
      <point x="76" y="206"/>
      <point x="140" y="150"/>
      <point x="248" y="150" type="curve" smooth="yes"/>
      <point x="303" y="150"/>
      <point x="351" y="174"/>
      <point x="387" y="222" type="curve"/>
      <point x="391" y="222" type="line"/>
      <point x="386" y="198"/>
      <point x="385" y="174"/>
      <point x="385" y="150" type="curve" smooth="yes"/>
    </contour>
  </outline>
</glyph>
<glyph name="uni0540" format="2">
  <advance width="609"/>
  <unicode hex="0540"/>
  <note>
uni0540
</note>
  <outline>
    <contour>
      <point x="403" y="-62" type="line"/>
      <point x="570" y="-62" type="line"/>
      <point x="570" y="-47" type="line" smooth="yes"/>
      <point x="570" y="60"/>
      <point x="515" y="92"/>
      <point x="359" y="125" type="curve" smooth="yes"/>
      <point x="58" y="188" type="line"/>
      <point x="40" y="120" type="line"/>
      <point x="345" y="56" type="line" smooth="yes"/>
      <point x="390" y="47"/>
      <point x="403" y="21"/>
      <point x="403" y="-42" type="curve" smooth="yes"/>
    </contour>
    <contour>
      <point x="207" y="120" type="line"/>
      <point x="232" y="536"/>
      <point x="281" y="656"/>
      <point x="360" y="656" type="curve" smooth="yes"/>
      <point x="408" y="656"/>
      <point x="434" y="610"/>
      <point x="434" y="509" type="curve"/>
      <point x="515" y="509"/>
      <point x="575" y="544"/>
      <point x="575" y="600" type="curve" smooth="yes"/>
      <point x="575" y="683"/>
      <point x="506" y="724"/>
      <point x="380" y="724" type="curve" smooth="yes"/>
      <point x="174" y="724"/>
      <point x="76" y="592"/>
      <point x="40" y="120" type="curve"/>
    </contour>
  </outline>
</glyph>
<glyph name="uni0541" format="2">
  <advance width="586"/>
  <unicode hex="0541"/>
  <note>
uni0541
</note>
  <outline>
    <contour>
      <point x="283" y="370" type="curve" smooth="yes"/>
      <point x="231" y="370"/>
      <point x="200" y="413"/>
      <point x="200" y="507" type="curve" smooth="yes"/>
      <point x="200" y="600"/>
      <point x="233" y="655"/>
      <point x="281" y="655" type="curve" smooth="yes"/>
      <point x="331" y="655"/>
      <point x="365" y="612"/>
      <point x="365" y="485" type="curve" smooth="yes"/>
      <point x="365" y="463"/>
      <point x="363" y="417"/>
      <point x="360" y="393" type="curve"/>
      <point x="338" y="374"/>
      <point x="305" y="370"/>
    </contour>
    <contour>
      <point x="355" y="317" type="curve"/>
      <point x="339" y="150"/>
      <point x="313" y="54"/>
      <point x="234" y="54" type="curve" smooth="yes"/>
      <point x="208" y="54"/>
      <point x="194" y="80"/>
      <point x="194" y="117" type="curve" smooth="yes"/>
      <point x="194" y="152"/>
      <point x="213" y="178"/>
      <point x="238" y="178" type="curve" smooth="yes"/>
      <point x="310" y="178"/>
      <point x="327" y="-10"/>
      <point x="498" y="-10" type="curve" smooth="yes"/>
      <point x="541" y="-10"/>
      <point x="567" y="22"/>
      <point x="568" y="70" type="curve"/>
      <point x="364" y="70"/>
      <point x="378" y="241"/>
      <point x="213" y="241" type="curve" smooth="yes"/>
      <point x="114" y="241"/>
      <point x="47" y="196"/>
      <point x="47" y="117" type="curve" smooth="yes"/>
      <point x="47" y="34"/>
      <point x="100" y="-10"/>
      <point x="218" y="-10" type="curve" smooth="yes"/>
      <point x="427" y="-10"/>
      <point x="535" y="211"/>
      <point x="535" y="444" type="curve" smooth="yes"/>
      <point x="535" y="657"/>
      <point x="421" y="723"/>
      <point x="281" y="723" type="curve" smooth="yes"/>
      <point x="136" y="723"/>
      <point x="30" y="641"/>
      <point x="30" y="506" type="curve" smooth="yes"/>
      <point x="30" y="378"/>
      <point x="140" y="306"/>
      <point x="266" y="306" type="curve" smooth="yes"/>
      <point x="296" y="306"/>
      <point x="328" y="309"/>
    </contour>
  </outline>
</glyph>
<glyph name="uni0542" format="2">
  <advance width="730"/>
  <unicode hex="0542"/>
  <note>
uni0542
</note>
  <outline>
    <contour>
      <point x="545" y="0" type="line"/>
      <point x="726" y="0" type="line"/>
      <point x="726" y="64" type="line"/>
      <point x="545" y="64" type="line"/>
    </contour>
    <contour>
      <point x="303" y="724" type="curve" smooth="yes"/>
      <point x="120" y="724"/>
      <point x="54" y="634"/>
      <point x="54" y="500" type="curve" smooth="yes"/>
      <point x="54" y="340" type="line"/>
      <point x="221" y="340" type="line"/>
      <point x="221" y="498" type="line" smooth="yes"/>
      <point x="221" y="603"/>
      <point x="254" y="650"/>
      <point x="305" y="650" type="curve" smooth="yes"/>
      <point x="369" y="650"/>
      <point x="395" y="615"/>
      <point x="395" y="504" type="curve" smooth="yes"/>
      <point x="395" y="0" type="line"/>
      <point x="562" y="0" type="line"/>
      <point x="562" y="496" type="line" smooth="yes"/>
      <point x="562" y="660"/>
      <point x="463" y="724"/>
    </contour>
  </outline>
</glyph>
<glyph name="uni0543" format="2">
  <advance width="647"/>
  <unicode hex="0543"/>
  <note>
uni0543
</note>
  <outline>
    <contour>
      <point x="596" y="0" type="line"/>
      <point x="596" y="458"/>
      <point x="453" y="629"/>
      <point x="58" y="629" type="curve"/>
      <point x="58" y="565" type="line"/>
      <point x="363" y="565"/>
      <point x="430" y="406"/>
      <point x="430" y="64" type="curve"/>
      <point x="323" y="64" type="line" smooth="yes"/>
      <point x="251" y="64"/>
      <point x="202" y="112"/>
      <point x="202" y="222" type="curve" smooth="yes"/>
      <point x="202" y="424"/>
      <point x="299" y="646"/>
      <point x="421" y="646" type="curve" smooth="yes"/>
      <point x="467" y="646"/>
      <point x="486" y="612"/>
      <point x="486" y="538" type="curve"/>
      <point x="568" y="538"/>
      <point x="627" y="574"/>
      <point x="627" y="626" type="curve" smooth="yes"/>
      <point x="627" y="685"/>
      <point x="570" y="724"/>
      <point x="482" y="724" type="curve" smooth="yes"/>
      <point x="273" y="724"/>
      <point x="26" y="434"/>
      <point x="26" y="227" type="curve" smooth="yes"/>
      <point x="26" y="69"/>
      <point x="121" y="0"/>
      <point x="323" y="0" type="curve" smooth="yes"/>
    </contour>
  </outline>
</glyph>
<glyph name="uni0544" format="2">
  <advance width="802"/>
  <unicode hex="0544"/>
  <note>
uni0544
</note>
  <outline>
    <contour>
      <point x="367" y="714" type="line"/>
      <point x="367" y="658" type="line"/>
      <point x="397" y="658"/>
      <point x="421" y="651"/>
      <point x="421" y="599" type="curve" smooth="yes"/>
      <point x="421" y="216" type="line" smooth="yes"/>
      <point x="421" y="111"/>
      <point x="388" y="64"/>
      <point x="337" y="64" type="curve" smooth="yes"/>
      <point x="273" y="64"/>
      <point x="247" y="99"/>
      <point x="247" y="210" type="curve" smooth="yes"/>
      <point x="247" y="714" type="line"/>
      <point x="26" y="714" type="line"/>
      <point x="26" y="658" type="line"/>
      <point x="66" y="658"/>
      <point x="80" y="653"/>
      <point x="80" y="599" type="curve" smooth="yes"/>
      <point x="80" y="218" type="line" smooth="yes"/>
      <point x="80" y="54"/>
      <point x="176" y="-10"/>
      <point x="336" y="-10" type="curve" smooth="yes"/>
      <point x="519" y="-10"/>
      <point x="588" y="80"/>
      <point x="588" y="214" type="curve" smooth="yes"/>
      <point x="588" y="714" type="line"/>
    </contour>
    <contour>
      <point x="610" y="646" type="line" smooth="yes"/>
      <point x="651" y="646"/>
      <point x="672" y="614"/>
      <point x="672" y="506" type="curve"/>
      <point x="747" y="506"/>
      <point x="786" y="546"/>
      <point x="786" y="605" type="curve" smooth="yes"/>
      <point x="786" y="682"/>
      <point x="732" y="714"/>
      <point x="615" y="714" type="curve" smooth="yes"/>
      <point x="555" y="714" type="line"/>
      <point x="555" y="646" type="line"/>
    </contour>
  </outline>
</glyph>
<glyph name="uni0545" format="2">
  <advance width="579"/>
  <unicode hex="0545"/>
  <note>
uni0545
</note>
  <outline>
    <contour>
      <point x="267" y="-11" type="curve" smooth="yes"/>
      <point x="413" y="-11"/>
      <point x="540" y="50"/>
      <point x="540" y="203" type="curve" smooth="yes"/>
      <point x="540" y="328"/>
      <point x="433" y="381"/>
      <point x="369" y="386" type="curve"/>
      <point x="450" y="407"/>
      <point x="518" y="451"/>
      <point x="518" y="549" type="curve" smooth="yes"/>
      <point x="518" y="665"/>
      <point x="430" y="724"/>
      <point x="282" y="724" type="curve" smooth="yes"/>
      <point x="136" y="724"/>
      <point x="64" y="658"/>
      <point x="64" y="591" type="curve" smooth="yes"/>
      <point x="64" y="518"/>
      <point x="131" y="504"/>
      <point x="203" y="504" type="curve"/>
      <point x="203" y="598"/>
      <point x="220" y="660"/>
      <point x="281" y="660" type="curve" smooth="yes"/>
      <point x="329" y="660"/>
      <point x="348" y="618"/>
      <point x="348" y="544" type="curve" smooth="yes"/>
      <point x="348" y="444"/>
      <point x="317" y="412"/>
      <point x="226" y="412" type="curve" smooth="yes"/>
      <point x="30" y="412" type="line"/>
      <point x="30" y="347" type="line"/>
      <point x="231" y="347" type="line" smooth="yes"/>
      <point x="336" y="347"/>
      <point x="363" y="289"/>
      <point x="363" y="196" type="curve" smooth="yes"/>
      <point x="363" y="102"/>
      <point x="335" y="55"/>
      <point x="272" y="55" type="curve" smooth="yes"/>
      <point x="195" y="55"/>
      <point x="157" y="122"/>
      <point x="157" y="235" type="curve"/>
      <point x="77" y="235"/>
      <point x="23" y="199"/>
      <point x="23" y="140" type="curve" smooth="yes"/>
      <point x="23" y="58"/>
      <point x="104" y="-11"/>
    </contour>
  </outline>
</glyph>
<glyph name="uni0546" format="2">
  <advance width="626"/>
  <unicode hex="0546"/>
  <note>
uni0546
</note>
  <outline>
    <contour>
      <point x="317" y="-10" type="curve" smooth="yes"/>
      <point x="477" y="-10"/>
      <point x="572" y="54"/>
      <point x="572" y="218" type="curve" smooth="yes"/>
      <point x="572" y="414" type="line"/>
      <point x="405" y="414" type="line"/>
      <point x="405" y="210" type="line" smooth="yes"/>
      <point x="405" y="99"/>
      <point x="379" y="64"/>
      <point x="315" y="64" type="curve" smooth="yes"/>
      <point x="264" y="64"/>
      <point x="231" y="111"/>
      <point x="231" y="216" type="curve" smooth="yes"/>
      <point x="231" y="354"/>
      <point x="266" y="493"/>
      <point x="324" y="631" type="curve"/>
      <point x="226" y="611" type="line"/>
      <point x="111" y="461"/>
      <point x="55" y="351"/>
      <point x="55" y="214" type="curve" smooth="yes"/>
      <point x="55" y="80"/>
      <point x="134" y="-10"/>
    </contour>
    <contour>
      <point x="324" y="631" type="line"/>
      <point x="198" y="631"/>
      <point x="177" y="677"/>
      <point x="177" y="765" type="curve"/>
      <point x="87" y="765"/>
      <point x="30" y="724"/>
      <point x="30" y="668" type="curve" smooth="yes"/>
      <point x="30" y="599"/>
      <point x="87" y="567"/>
      <point x="257" y="567" type="curve"/>
    </contour>
  </outline>
</glyph>
<glyph name="uni0547" format="2">
  <advance width="613"/>
  <unicode hex="0547"/>
  <note>
uni0547
</note>
  <outline>
    <contour>
      <point x="28" y="631" type="line"/>
      <point x="48" y="637"/>
      <point x="80" y="646"/>
      <point x="117" y="646" type="curve" smooth="yes"/>
      <point x="314" y="646"/>
      <point x="301" y="504"/>
      <point x="447" y="504" type="curve" smooth="yes"/>
      <point x="527" y="504"/>
      <point x="581" y="591"/>
      <point x="581" y="714" type="curve"/>
      <point x="512" y="714" type="line"/>
      <point x="512" y="672"/>
      <point x="476" y="645"/>
      <point x="434" y="645" type="curve" smooth="yes"/>
      <point x="337" y="645"/>
      <point x="283" y="719"/>
      <point x="138" y="719" type="curve" smooth="yes"/>
      <point x="109" y="719"/>
      <point x="54" y="709"/>
      <point x="28" y="699" type="curve"/>
    </contour>
    <contour>
      <point x="356" y="596" type="curve"/>
      <point x="275" y="617" type="line"/>
      <point x="134" y="492"/>
      <point x="45" y="351"/>
      <point x="45" y="214" type="curve" smooth="yes"/>
      <point x="45" y="80"/>
      <point x="124" y="-10"/>
      <point x="307" y="-10" type="curve" smooth="yes"/>
      <point x="467" y="-10"/>
      <point x="562" y="54"/>
      <point x="562" y="218" type="curve" smooth="yes"/>
      <point x="562" y="296" type="line"/>
      <point x="395" y="296" type="line"/>
      <point x="395" y="210" type="line" smooth="yes"/>
      <point x="395" y="99"/>
      <point x="369" y="64"/>
      <point x="305" y="64" type="curve" smooth="yes"/>
      <point x="254" y="64"/>
      <point x="221" y="111"/>
      <point x="221" y="216" type="curve" smooth="yes"/>
      <point x="221" y="354"/>
      <point x="268" y="471"/>
    </contour>
  </outline>
</glyph>
<glyph name="uni0548" format="2">
  <advance width="666"/>
  <unicode hex="0548"/>
  <note>
uni0548
</note>
  <anchor x="332" y="714" name="top"/>
  <outline>
    <contour>
      <point x="299" y="0" type="line"/>
      <point x="299" y="56" type="line"/>
      <point x="269" y="56"/>
      <point x="245" y="63"/>
      <point x="245" y="115" type="curve" smooth="yes"/>
      <point x="245" y="498" type="line" smooth="yes"/>
      <point x="245" y="603"/>
      <point x="278" y="650"/>
      <point x="329" y="650" type="curve" smooth="yes"/>
      <point x="393" y="650"/>
      <point x="419" y="615"/>
      <point x="419" y="504" type="curve" smooth="yes"/>
      <point x="419" y="0" type="line"/>
      <point x="640" y="0" type="line"/>
      <point x="640" y="56" type="line"/>
      <point x="600" y="56"/>
      <point x="586" y="61"/>
      <point x="586" y="115" type="curve" smooth="yes"/>
      <point x="586" y="496" type="line" smooth="yes"/>
      <point x="586" y="660"/>
      <point x="487" y="724"/>
      <point x="327" y="724" type="curve" smooth="yes"/>
      <point x="144" y="724"/>
      <point x="78" y="634"/>
      <point x="78" y="500" type="curve" smooth="yes"/>
      <point x="78" y="0" type="line"/>
    </contour>
  </outline>
</glyph>
<glyph name="uni0549" format="2">
  <advance width="607"/>
  <unicode hex="0549"/>
  <note>
uni0549
</note>
  <outline>
    <contour>
      <point x="244" y="156" type="curve"/>
      <point x="301" y="113" type="line"/>
      <point x="479" y="215"/>
      <point x="562" y="363"/>
      <point x="562" y="500" type="curve" smooth="yes"/>
      <point x="562" y="634"/>
      <point x="483" y="724"/>
      <point x="300" y="724" type="curve" smooth="yes"/>
      <point x="140" y="724"/>
      <point x="45" y="660"/>
      <point x="45" y="496" type="curve" smooth="yes"/>
      <point x="45" y="474" type="line"/>
      <point x="212" y="474" type="line"/>
      <point x="212" y="504" type="line" smooth="yes"/>
      <point x="212" y="615"/>
      <point x="238" y="650"/>
      <point x="302" y="650" type="curve" smooth="yes"/>
      <point x="353" y="650"/>
      <point x="386" y="603"/>
      <point x="386" y="498" type="curve" smooth="yes"/>
      <point x="386" y="360"/>
      <point x="350" y="266"/>
    </contour>
    <contour>
      <point x="548" y="-10" type="curve"/>
      <point x="548" y="64" type="line"/>
      <point x="410" y="65"/>
      <point x="262" y="182"/>
      <point x="205" y="339" type="curve"/>
      <point x="26" y="256" type="line"/>
      <point x="146" y="96"/>
      <point x="349" y="-3"/>
    </contour>
  </outline>
</glyph>
<glyph name="uni054A" format="2">
  <advance width="792"/>
  <unicode hex="054A"/>
  <note>
uni054A
</note>
  <outline>
    <contour>
      <point x="712" y="115" type="curve" smooth="yes"/>
      <point x="712" y="496" type="line" smooth="yes"/>
      <point x="712" y="660"/>
      <point x="580" y="724"/>
      <point x="374" y="724" type="curve" smooth="yes"/>
      <point x="137" y="724"/>
      <point x="48" y="634"/>
      <point x="48" y="500" type="curve" smooth="yes"/>
      <point x="48" y="320" type="line"/>
      <point x="215" y="320" type="line"/>
      <point x="215" y="498" type="line" smooth="yes"/>
      <point x="215" y="603"/>
      <point x="280" y="650"/>
      <point x="374" y="650" type="curve" smooth="yes"/>
      <point x="493" y="650"/>
      <point x="545" y="615"/>
      <point x="545" y="504" type="curve" smooth="yes"/>
      <point x="545" y="0" type="line"/>
      <point x="766" y="0" type="line"/>
      <point x="766" y="56" type="line"/>
      <point x="726" y="56"/>
      <point x="712" y="61"/>
    </contour>
    <contour>
      <point x="297" y="667" type="line"/>
      <point x="297" y="160" type="line"/>
      <point x="463" y="160" type="line"/>
      <point x="463" y="667" type="line"/>
    </contour>
  </outline>
</glyph>
<glyph name="uni054B" format="2">
  <advance width="581"/>
  <unicode hex="054B"/>
  <note>
uni054B
</note>
  <outline>
    <contour>
      <point x="37" y="0" type="line"/>
      <point x="197" y="0" type="line"/>
      <point x="197" y="203" type="line"/>
      <point x="37" y="203" type="line"/>
    </contour>
    <contour>
      <point x="386" y="0" type="line"/>
      <point x="553" y="0" type="line"/>
      <point x="553" y="14" type="line" smooth="yes"/>
      <point x="553" y="111"/>
      <point x="501" y="152"/>
      <point x="380" y="152" type="curve" smooth="yes"/>
      <point x="117" y="152" type="line"/>
      <point x="117" y="88" type="line"/>
      <point x="309" y="88" type="line" smooth="yes"/>
      <point x="371" y="88"/>
      <point x="386" y="71"/>
      <point x="386" y="17" type="curve" smooth="yes"/>
    </contour>
    <contour>
      <point x="261" y="171" type="curve"/>
      <point x="325" y="211" type="line"/>
      <point x="325" y="282"/>
      <point x="298" y="334"/>
      <point x="264" y="375" type="curve" smooth="yes"/>
      <point x="226" y="421"/>
      <point x="194" y="464"/>
      <point x="194" y="525" type="curve" smooth="yes"/>
      <point x="194" y="615"/>
      <point x="227" y="655"/>
      <point x="280" y="655" type="curve" smooth="yes"/>
      <point x="335" y="655"/>
      <point x="369" y="607"/>
      <point x="369" y="496" type="curve" smooth="yes"/>
      <point x="369" y="374"/>
      <point x="350" y="289"/>
      <point x="312" y="234" type="curve" smooth="yes"/>
      <point x="274" y="179"/>
      <point x="237" y="152"/>
      <point x="191" y="152" type="curve"/>
      <point x="326" y="152" type="line"/>
      <point x="462" y="233"/>
      <point x="539" y="353"/>
      <point x="539" y="496" type="curve" smooth="yes"/>
      <point x="539" y="642"/>
      <point x="442" y="723"/>
      <point x="280" y="723" type="curve" smooth="yes"/>
      <point x="130" y="723"/>
      <point x="24" y="636"/>
      <point x="24" y="518" type="curve" smooth="yes"/>
      <point x="24" y="418"/>
      <point x="71" y="370"/>
      <point x="123" y="333" type="curve" smooth="yes"/>
      <point x="187" y="287"/>
      <point x="260" y="259"/>
    </contour>
  </outline>
</glyph>
<glyph name="uni054C" format="2">
  <advance width="829"/>
  <unicode hex="054C"/>
  <note>
uni054C
</note>
  <outline>
    <contour>
      <point x="299" y="0" type="line"/>
      <point x="299" y="56" type="line"/>
      <point x="269" y="56"/>
      <point x="245" y="63"/>
      <point x="245" y="115" type="curve" smooth="yes"/>
      <point x="245" y="498" type="line" smooth="yes"/>
      <point x="245" y="603"/>
      <point x="278" y="650"/>
      <point x="329" y="650" type="curve" smooth="yes"/>
      <point x="393" y="650"/>
      <point x="419" y="615"/>
      <point x="419" y="504" type="curve" smooth="yes"/>
      <point x="419" y="0" type="line"/>
      <point x="640" y="0" type="line"/>
      <point x="640" y="56" type="line"/>
      <point x="600" y="56"/>
      <point x="586" y="61"/>
      <point x="586" y="115" type="curve" smooth="yes"/>
      <point x="586" y="496" type="line" smooth="yes"/>
      <point x="586" y="660"/>
      <point x="487" y="724"/>
      <point x="327" y="724" type="curve" smooth="yes"/>
      <point x="144" y="724"/>
      <point x="78" y="634"/>
      <point x="78" y="500" type="curve" smooth="yes"/>
      <point x="78" y="0" type="line"/>
    </contour>
    <contour>
      <point x="581" y="417" type="curve"/>
      <point x="579" y="348" type="line"/>
      <point x="584" y="350"/>
      <point x="597" y="352"/>
      <point x="603" y="352" type="curve" smooth="yes"/>
      <point x="641" y="352"/>
      <point x="649" y="337"/>
      <point x="649" y="247" type="curve" smooth="yes"/>
      <point x="649" y="160" type="line"/>
      <point x="813" y="160" type="line"/>
      <point x="813" y="244" type="line" smooth="yes"/>
      <point x="813" y="377"/>
      <point x="767" y="424"/>
      <point x="655" y="424" type="curve" smooth="yes"/>
      <point x="620" y="424"/>
      <point x="603" y="420"/>
    </contour>
  </outline>
</glyph>
<glyph name="uni054D" format="2">
  <advance width="666"/>
  <unicode hex="054D"/>
  <note>
uni054D
</note>
  <outline>
    <contour>
      <point x="367" y="714" type="line"/>
      <point x="367" y="658" type="line"/>
      <point x="397" y="658"/>
      <point x="421" y="651"/>
      <point x="421" y="599" type="curve" smooth="yes"/>
      <point x="421" y="216" type="line" smooth="yes"/>
      <point x="421" y="111"/>
      <point x="388" y="64"/>
      <point x="337" y="64" type="curve" smooth="yes"/>
      <point x="273" y="64"/>
      <point x="247" y="99"/>
      <point x="247" y="210" type="curve" smooth="yes"/>
      <point x="247" y="714" type="line"/>
      <point x="26" y="714" type="line"/>
      <point x="26" y="658" type="line"/>
      <point x="66" y="658"/>
      <point x="80" y="653"/>
      <point x="80" y="599" type="curve" smooth="yes"/>
      <point x="80" y="218" type="line" smooth="yes"/>
      <point x="80" y="54"/>
      <point x="178" y="-10"/>
      <point x="338" y="-10" type="curve" smooth="yes"/>
      <point x="521" y="-10"/>
      <point x="588" y="80"/>
      <point x="588" y="214" type="curve" smooth="yes"/>
      <point x="588" y="714" type="line"/>
    </contour>
  </outline>
</glyph>
<glyph name="uni054E" format="2">
  <advance width="720"/>
  <unicode hex="054E"/>
  <note>
uni054E
</note>
  <outline>
    <contour>
      <point x="334" y="714" type="line"/>
      <point x="334" y="658" type="line"/>
      <point x="364" y="658"/>
      <point x="385" y="651"/>
      <point x="385" y="599" type="curve" smooth="yes"/>
      <point x="385" y="328" type="line" smooth="yes"/>
      <point x="385" y="285"/>
      <point x="356" y="246"/>
      <point x="311" y="246" type="curve" smooth="yes"/>
      <point x="258" y="246"/>
      <point x="243" y="293"/>
      <point x="243" y="353" type="curve" smooth="yes"/>
      <point x="243" y="484" type="line"/>
      <point x="22" y="484" type="line"/>
      <point x="22" y="428" type="line"/>
      <point x="52" y="428"/>
      <point x="76" y="421"/>
      <point x="76" y="369" type="curve" smooth="yes"/>
      <point x="76" y="340" type="line" smooth="yes"/>
      <point x="76" y="206"/>
      <point x="139" y="150"/>
      <point x="248" y="150" type="curve" smooth="yes"/>
      <point x="303" y="150"/>
      <point x="351" y="174"/>
      <point x="387" y="222" type="curve"/>
      <point x="391" y="222" type="line"/>
      <point x="389" y="198"/>
      <point x="385" y="174"/>
      <point x="385" y="150" type="curve" smooth="yes"/>
      <point x="385" y="0" type="line"/>
      <point x="552" y="0" type="line"/>
      <point x="552" y="714" type="line"/>
    </contour>
    <contour>
      <point x="539" y="0" type="line"/>
      <point x="716" y="0" type="line"/>
      <point x="716" y="63" type="line"/>
      <point x="539" y="63" type="line"/>
    </contour>
  </outline>
</glyph>
<glyph name="uni054F" format="2">
  <advance width="504"/>
  <unicode hex="054F"/>
  <note>
uni054F
</note>
  <outline>
    <contour>
      <point x="237" y="-10" type="curve" smooth="yes"/>
      <point x="385" y="-10"/>
      <point x="480" y="76"/>
      <point x="480" y="206" type="curve" smooth="yes"/>
      <point x="480" y="304"/>
      <point x="444" y="370"/>
      <point x="317" y="429" type="curve" smooth="yes"/>
      <point x="193" y="486"/>
      <point x="170" y="526"/>
      <point x="170" y="574" type="curve" smooth="yes"/>
      <point x="170" y="632"/>
      <point x="202" y="661"/>
      <point x="243" y="661" type="curve" smooth="yes"/>
      <point x="302" y="661"/>
      <point x="335" y="586"/>
      <point x="335" y="519" type="curve"/>
      <point x="425" y="519"/>
      <point x="456" y="553"/>
      <point x="456" y="601" type="curve" smooth="yes"/>
      <point x="456" y="661"/>
      <point x="398" y="724"/>
      <point x="263" y="724" type="curve" smooth="yes"/>
      <point x="136" y="724"/>
      <point x="38" y="648"/>
      <point x="38" y="526" type="curve" smooth="yes"/>
      <point x="38" y="432"/>
      <point x="73" y="363"/>
      <point x="199" y="302" type="curve" smooth="yes"/>
      <point x="290" y="258"/>
      <point x="346" y="224"/>
      <point x="346" y="155" type="curve" smooth="yes"/>
      <point x="346" y="100"/>
      <point x="314" y="52"/>
      <point x="256" y="52" type="curve" smooth="yes"/>
      <point x="197" y="52"/>
      <point x="131" y="104"/>
      <point x="131" y="229" type="curve"/>
      <point x="75" y="229"/>
      <point x="20" y="205"/>
      <point x="20" y="128" type="curve" smooth="yes"/>
      <point x="20" y="70"/>
      <point x="57" y="-10"/>
    </contour>
  </outline>
</glyph>
<glyph name="uni0550" format="2">
  <advance width="634"/>
  <unicode hex="0550"/>
  <note>
uni0550
</note>
  <outline>
    <contour>
      <point x="331" y="724" type="curve" smooth="yes"/>
      <point x="148" y="724"/>
      <point x="78" y="634"/>
      <point x="78" y="500" type="curve" smooth="yes"/>
      <point x="78" y="0" type="line"/>
      <point x="299" y="0" type="line"/>
      <point x="299" y="56" type="line"/>
      <point x="269" y="56"/>
      <point x="245" y="63"/>
      <point x="245" y="115" type="curve" smooth="yes"/>
      <point x="245" y="498" type="line" smooth="yes"/>
      <point x="245" y="603"/>
      <point x="278" y="650"/>
      <point x="329" y="650" type="curve" smooth="yes"/>
      <point x="393" y="650"/>
      <point x="419" y="615"/>
      <point x="419" y="504" type="curve" smooth="yes"/>
      <point x="419" y="350" type="line"/>
      <point x="586" y="350" type="line"/>
      <point x="586" y="496" type="line" smooth="yes"/>
      <point x="586" y="660"/>
      <point x="491" y="724"/>
    </contour>
  </outline>
</glyph>
<glyph name="uni0551" format="2">
  <advance width="579"/>
  <unicode hex="0551"/>
  <note>
uni0551
</note>
  <outline>
    <contour>
      <point x="356" y="394" type="curve"/>
      <point x="356" y="397" type="line"/>
      <point x="494" y="434"/>
      <point x="520" y="492"/>
      <point x="520" y="560" type="curve" smooth="yes"/>
      <point x="520" y="649"/>
      <point x="464" y="723"/>
      <point x="284" y="723" type="curve" smooth="yes"/>
      <point x="101" y="723"/>
      <point x="46" y="636"/>
      <point x="46" y="553" type="curve" smooth="yes"/>
      <point x="46" y="473"/>
      <point x="73" y="439"/>
      <point x="158" y="397" type="curve"/>
      <point x="158" y="391" type="line"/>
      <point x="30" y="368" type="line"/>
      <point x="56" y="258" type="line"/>
      <point x="250" y="357" type="line"/>
      <point x="325" y="326"/>
      <point x="372" y="285"/>
      <point x="372" y="193" type="curve" smooth="yes"/>
      <point x="372" y="100"/>
      <point x="347" y="54"/>
      <point x="269" y="54" type="curve" smooth="yes"/>
      <point x="188" y="54"/>
      <point x="167" y="108"/>
      <point x="167" y="226" type="curve"/>
      <point x="92" y="226"/>
      <point x="20" y="201"/>
      <point x="20" y="129" type="curve" smooth="yes"/>
      <point x="20" y="67"/>
      <point x="88" y="-10"/>
      <point x="274" y="-10" type="curve" smooth="yes"/>
      <point x="459" y="-10"/>
      <point x="549" y="74"/>
      <point x="549" y="190" type="curve" smooth="yes"/>
      <point x="549" y="288"/>
      <point x="505" y="357"/>
    </contour>
    <contour>
      <point x="209" y="553" type="curve" smooth="yes"/>
      <point x="209" y="623"/>
      <point x="229" y="659"/>
      <point x="283" y="659" type="curve" smooth="yes"/>
      <point x="336" y="659"/>
      <point x="357" y="620"/>
      <point x="357" y="561" type="curve" smooth="yes"/>
      <point x="357" y="508"/>
      <point x="345" y="453"/>
      <point x="276" y="426" type="curve"/>
      <point x="222" y="453"/>
      <point x="209" y="496"/>
    </contour>
  </outline>
</glyph>
<glyph name="uni0552" format="2">
  <advance width="584"/>
  <unicode hex="0552"/>
  <note>
uni0552
</note>
  <outline>
    <contour>
      <point x="237" y="500" type="line"/>
      <point x="237" y="436" type="line"/>
      <point x="266" y="436" type="line" smooth="yes"/>
      <point x="288" y="436"/>
      <point x="299" y="428"/>
      <point x="340" y="314" type="curve" smooth="yes"/>
      <point x="377" y="211"/>
      <point x="414" y="188"/>
      <point x="479" y="188" type="curve" smooth="yes"/>
      <point x="579" y="188" type="line"/>
      <point x="579" y="252" type="line"/>
      <point x="567" y="252" type="line" smooth="yes"/>
      <point x="527" y="252"/>
      <point x="517" y="262"/>
      <point x="474" y="374" type="curve" smooth="yes"/>
      <point x="434" y="480"/>
      <point x="412" y="500"/>
      <point x="303" y="500" type="curve" smooth="yes"/>
    </contour>
    <contour>
      <point x="245" y="115" type="curve" smooth="yes"/>
      <point x="245" y="714" type="line"/>
      <point x="26" y="714" type="line"/>
      <point x="26" y="658" type="line"/>
      <point x="66" y="658"/>
      <point x="78" y="653"/>
      <point x="78" y="599" type="curve" smooth="yes"/>
      <point x="78" y="0" type="line"/>
      <point x="299" y="0" type="line"/>
      <point x="299" y="56" type="line"/>
      <point x="269" y="56"/>
      <point x="245" y="63"/>
    </contour>
  </outline>
</glyph>
<glyph name="uni0553" format="2">
  <advance width="780"/>
  <unicode hex="0553"/>
  <note>
uni0553
</note>
  <outline>
    <contour>
      <point x="491" y="134" type="line" smooth="yes"/>
      <point x="681" y="134"/>
      <point x="748" y="249"/>
      <point x="748" y="370" type="curve" smooth="yes"/>
      <point x="748" y="500"/>
      <point x="673" y="590"/>
      <point x="512" y="590" type="curve" smooth="yes"/>
      <point x="467" y="590" type="line"/>
      <point x="467" y="714" type="line"/>
      <point x="260" y="714" type="line"/>
      <point x="260" y="658" type="line"/>
      <point x="297" y="658"/>
      <point x="314" y="651"/>
      <point x="314" y="600" type="curve" smooth="yes"/>
      <point x="314" y="590" type="line"/>
      <point x="267" y="590" type="line" smooth="yes"/>
      <point x="108" y="590"/>
      <point x="32" y="500"/>
      <point x="32" y="370" type="curve" smooth="yes"/>
      <point x="32" y="247"/>
      <point x="99" y="134"/>
      <point x="289" y="134" type="curve" smooth="yes"/>
      <point x="314" y="134" type="line"/>
      <point x="314" y="0" type="line"/>
      <point x="523" y="0" type="line"/>
      <point x="523" y="56" type="line"/>
      <point x="478" y="56"/>
      <point x="467" y="66"/>
      <point x="467" y="114" type="curve" smooth="yes"/>
      <point x="467" y="134" type="line"/>
    </contour>
    <contour>
      <point x="314" y="195" type="line"/>
      <point x="293" y="195" type="line" smooth="yes"/>
      <point x="218" y="195"/>
      <point x="184" y="240"/>
      <point x="184" y="367" type="curve" smooth="yes"/>
      <point x="184" y="479"/>
      <point x="218" y="529"/>
      <point x="284" y="529" type="curve" smooth="yes"/>
      <point x="314" y="529" type="line"/>
    </contour>
    <contour>
      <point x="467" y="529" type="line"/>
      <point x="496" y="529" type="line" smooth="yes"/>
      <point x="562" y="529"/>
      <point x="595" y="479"/>
      <point x="595" y="367" type="curve" smooth="yes"/>
      <point x="595" y="240"/>
      <point x="558" y="195"/>
      <point x="486" y="195" type="curve" smooth="yes"/>
      <point x="467" y="195" type="line"/>
    </contour>
  </outline>
</glyph>
<glyph name="uni0554" format="2">
  <advance width="577"/>
  <unicode hex="0554"/>
  <note>
uni0554
</note>
  <outline>
    <contour>
      <point x="78" y="0" type="line"/>
      <point x="245" y="0" type="line"/>
      <point x="245" y="342" type="line"/>
      <point x="301" y="342" type="line" smooth="yes"/>
      <point x="479" y="342"/>
      <point x="541" y="417"/>
      <point x="541" y="529" type="curve" smooth="yes"/>
      <point x="541" y="652"/>
      <point x="471" y="724"/>
      <point x="315" y="724" type="curve" smooth="yes"/>
      <point x="158" y="724"/>
      <point x="78" y="649"/>
      <point x="78" y="505" type="curve" smooth="yes"/>
    </contour>
    <contour>
      <point x="279" y="406" type="curve" smooth="yes"/>
      <point x="245" y="406" type="line"/>
      <point x="245" y="503" type="line" smooth="yes"/>
      <point x="245" y="631"/>
      <point x="262" y="660"/>
      <point x="311" y="660" type="curve" smooth="yes"/>
      <point x="357" y="660"/>
      <point x="374" y="623"/>
      <point x="374" y="536" type="curve" smooth="yes"/>
      <point x="374" y="454"/>
      <point x="346" y="406"/>
    </contour>
    <contour>
      <point x="10" y="201" type="line"/>
      <point x="534" y="201" type="line"/>
      <point x="534" y="265" type="line"/>
      <point x="10" y="265" type="line"/>
    </contour>
  </outline>
</glyph>
<glyph name="uni0555" format="2">
  <advance width="684"/>
  <unicode hex="0555"/>
  <note>
uni0555
</note>
  <anchor x="342" y="714" name="top"/>
  <outline>
    <contour>
      <point x="343" y="-10" type="curve" smooth="yes"/>
      <point x="533" y="-10"/>
      <point x="639" y="137"/>
      <point x="639" y="358" type="curve" smooth="yes"/>
      <point x="639" y="580"/>
      <point x="533" y="725"/>
      <point x="344" y="725" type="curve" smooth="yes"/>
      <point x="142" y="725"/>
      <point x="45" y="580"/>
      <point x="45" y="359" type="curve" smooth="yes"/>
      <point x="45" y="137"/>
      <point x="142" y="-10"/>
    </contour>
    <contour>
      <point x="343" y="58" type="curve" smooth="yes"/>
      <point x="254" y="58"/>
      <point x="221" y="169"/>
      <point x="221" y="358" type="curve" smooth="yes"/>
      <point x="221" y="547"/>
      <point x="254" y="657"/>
      <point x="344" y="657" type="curve" smooth="yes"/>
      <point x="432" y="657"/>
      <point x="464" y="547"/>
      <point x="464" y="358" type="curve" smooth="yes"/>
      <point x="464" y="169"/>
      <point x="432" y="58"/>
    </contour>
  </outline>
</glyph>
<glyph name="uni0556" format="2">
  <advance width="682"/>
  <unicode hex="0556"/>
  <note>
uni0556
</note>
  <outline>
    <contour>
      <point x="338" y="-10" type="curve" smooth="yes"/>
      <point x="586" y="-10"/>
      <point x="658" y="80"/>
      <point x="658" y="189" type="curve" smooth="yes"/>
      <point x="658" y="307"/>
      <point x="595" y="369"/>
      <point x="357" y="406" type="curve" smooth="yes"/>
      <point x="214" y="428"/>
      <point x="196" y="455"/>
      <point x="196" y="542" type="curve" smooth="yes"/>
      <point x="196" y="619"/>
      <point x="220" y="660"/>
      <point x="269" y="660" type="curve"/>
      <point x="269" y="724" type="line"/>
      <point x="135" y="724"/>
      <point x="36" y="644"/>
      <point x="36" y="542" type="curve" smooth="yes"/>
      <point x="36" y="423"/>
      <point x="85" y="380"/>
      <point x="290" y="349" type="curve" smooth="yes"/>
      <point x="465" y="323"/>
      <point x="498" y="289"/>
      <point x="498" y="181" type="curve" smooth="yes"/>
      <point x="498" y="95"/>
      <point x="468" y="54"/>
      <point x="317" y="54" type="curve" smooth="yes"/>
      <point x="189" y="54"/>
      <point x="138" y="110"/>
      <point x="138" y="239" type="curve"/>
      <point x="69" y="239"/>
      <point x="24" y="201"/>
      <point x="24" y="129" type="curve" smooth="yes"/>
      <point x="24" y="65"/>
      <point x="101" y="-10"/>
    </contour>
    <contour>
      <point x="269" y="724" type="line"/>
      <point x="269" y="5" type="line"/>
      <point x="418" y="5" type="line"/>
      <point x="418" y="724" type="line"/>
    </contour>
  </outline>
</glyph>
<glyph name="uni0559" format="2">
  <advance width="237"/>
  <unicode hex="0559"/>
  <note>
uni0559
</note>
  <outline>
    <contour>
      <point x="196" y="417" type="curve"/>
      <point x="196" y="555" type="line"/>
      <point x="161" y="559"/>
      <point x="137" y="578"/>
      <point x="137" y="623" type="curve" smooth="yes"/>
      <point x="137" y="662"/>
      <point x="158" y="688"/>
      <point x="202" y="705" type="curve"/>
      <point x="183" y="760" type="line"/>
      <point x="88" y="730"/>
      <point x="35" y="660"/>
      <point x="35" y="568" type="curve" smooth="yes"/>
      <point x="35" y="478"/>
      <point x="88" y="420"/>
    </contour>
  </outline>
</glyph>
<glyph name="uni055A" format="2">
  <advance width="237"/>
  <unicode hex="055A"/>
  <note>
uni055A
</note>
  <outline>
    <contour>
      <point x="41" y="760" type="curve"/>
      <point x="41" y="622" type="line"/>
      <point x="76" y="619"/>
      <point x="100" y="600"/>
      <point x="100" y="559" type="curve" smooth="yes"/>
      <point x="100" y="515"/>
      <point x="80" y="489"/>
      <point x="35" y="472" type="curve"/>
      <point x="54" y="417" type="line"/>
      <point x="150" y="448"/>
      <point x="202" y="518"/>
      <point x="202" y="610" type="curve" smooth="yes"/>
      <point x="202" y="700"/>
      <point x="149" y="757"/>
    </contour>
  </outline>
</glyph>
<glyph name="uni055B" format="2">
  <advance width="226"/>
  <unicode hex="055B"/>
  <note>
uni055B
</note>
  <outline>
    <contour>
      <point x="40" y="603" type="line"/>
      <point x="128" y="603" type="line"/>
      <point x="152" y="668"/>
      <point x="173" y="739"/>
      <point x="189" y="800" type="curve"/>
      <point x="180" y="814" type="line"/>
      <point x="67" y="814" type="line"/>
      <point x="64" y="786"/>
      <point x="57" y="743"/>
      <point x="51" y="700" type="curve" smooth="yes"/>
      <point x="40" y="625" type="line"/>
    </contour>
  </outline>
</glyph>
<glyph name="uni055C" format="2">
  <advance width="283"/>
  <unicode hex="055C"/>
  <note>
uni055C
</note>
  <outline>
    <contour>
      <point x="71" y="603" type="curve"/>
      <point x="175" y="603" type="line"/>
      <point x="175" y="615" type="line" smooth="yes"/>
      <point x="175" y="638"/>
      <point x="183" y="659"/>
      <point x="209" y="678" type="curve" smooth="yes"/>
      <point x="263" y="717"/>
      <point x="273" y="740"/>
      <point x="273" y="814" type="curve"/>
      <point x="169" y="814" type="line"/>
      <point x="169" y="791" type="line" smooth="yes"/>
      <point x="169" y="773"/>
      <point x="160" y="757"/>
      <point x="150" y="749" type="curve" smooth="yes"/>
      <point x="93" y="707"/>
      <point x="71" y="687"/>
    </contour>
  </outline>
</glyph>
<glyph name="uni055D" format="2">
  <advance width="226"/>
  <unicode hex="055D"/>
  <note>
uni055D
</note>
  <outline>
    <contour>
      <point x="186" y="603" type="line"/>
      <point x="185" y="624" type="line"/>
      <point x="174" y="700" type="line" smooth="yes"/>
      <point x="168" y="743"/>
      <point x="162" y="786"/>
      <point x="160" y="814" type="curve"/>
      <point x="46" y="814" type="line"/>
      <point x="37" y="800" type="line"/>
      <point x="53" y="739"/>
      <point x="73" y="668"/>
      <point x="98" y="603" type="curve"/>
    </contour>
  </outline>
</glyph>
<glyph name="uni055E" format="2">
  <advance width="469"/>
  <unicode hex="055E"/>
  <note>
uni055E
</note>
  <outline>
    <contour>
      <point x="71" y="556" type="curve"/>
      <point x="201" y="556" type="line"/>
      <point x="201" y="688"/>
      <point x="219" y="755"/>
      <point x="273" y="755" type="curve" smooth="yes"/>
      <point x="298" y="755"/>
      <point x="313" y="737"/>
      <point x="313" y="710" type="curve" smooth="yes"/>
      <point x="313" y="679"/>
      <point x="295" y="659"/>
      <point x="266" y="659" type="curve" smooth="yes"/>
      <point x="248" y="659"/>
      <point x="233" y="665"/>
      <point x="222" y="672" type="curve"/>
      <point x="222" y="619"/>
      <point x="265" y="585"/>
      <point x="324" y="585" type="curve" smooth="yes"/>
      <point x="398" y="585"/>
      <point x="443" y="632"/>
      <point x="443" y="701" type="curve" smooth="yes"/>
      <point x="443" y="778"/>
      <point x="384" y="829"/>
      <point x="286" y="829" type="curve" smooth="yes"/>
      <point x="160" y="829"/>
      <point x="71" y="718"/>
    </contour>
  </outline>
</glyph>
<glyph name="uni055F" format="2">
  <advance width="398"/>
  <unicode hex="055F"/>
  <note>
uni055F
</note>
  <outline>
    <contour>
      <point x="222" y="603" type="curve" smooth="yes"/>
      <point x="365" y="603" type="line"/>
      <point x="365" y="681" type="line"/>
      <point x="241" y="681" type="line" smooth="yes"/>
      <point x="183" y="681"/>
      <point x="160" y="697"/>
      <point x="160" y="735" type="curve" smooth="yes"/>
      <point x="160" y="763"/>
      <point x="177" y="779"/>
      <point x="209" y="779" type="curve" smooth="yes"/>
      <point x="229" y="779"/>
      <point x="252" y="774"/>
      <point x="265" y="768" type="curve"/>
      <point x="265" y="818"/>
      <point x="224" y="861"/>
      <point x="163" y="861" type="curve" smooth="yes"/>
      <point x="87" y="861"/>
      <point x="44" y="812"/>
      <point x="44" y="735" type="curve" smooth="yes"/>
      <point x="44" y="649"/>
      <point x="102" y="603"/>
    </contour>
  </outline>
</glyph>
<glyph name="uni0560" format="2">
  <advance width="843"/>
  <unicode hex="0560"/>
  <note>
uni0561
</note>
  <anchor x="423" y="492" name="top"/>
  <outline>
    <contour>
      <point x="282" y="0" type="line"/>
      <point x="282" y="56" type="line"/>
      <point x="245" y="56"/>
      <point x="234" y="65"/>
      <point x="234" y="121" type="curve" smooth="yes"/>
      <point x="234" y="262" type="line" smooth="yes"/>
      <point x="234" y="363"/>
      <point x="250" y="415"/>
      <point x="291" y="415" type="curve" smooth="yes"/>
      <point x="329" y="415"/>
      <point x="340" y="366"/>
      <point x="340" y="281" type="curve" smooth="yes"/>
      <point x="340" y="0" type="line"/>
      <point x="550" y="0" type="line"/>
      <point x="550" y="56" type="line"/>
      <point x="513" y="56"/>
      <point x="502" y="65"/>
      <point x="502" y="126" type="curve" smooth="yes"/>
      <point x="502" y="274" type="line" smooth="yes"/>
      <point x="502" y="370"/>
      <point x="520" y="415"/>
      <point x="560" y="415" type="curve" smooth="yes"/>
      <point x="598" y="415"/>
      <point x="611" y="366"/>
      <point x="611" y="281" type="curve" smooth="yes"/>
      <point x="611" y="0" type="line"/>
      <point x="821" y="0" type="line"/>
      <point x="821" y="56" type="line"/>
      <point x="781" y="56"/>
      <point x="773" y="65"/>
      <point x="773" y="126" type="curve" smooth="yes"/>
      <point x="773" y="313" type="line" smooth="yes"/>
      <point x="773" y="448"/>
      <point x="721" y="502"/>
      <point x="629" y="502" type="curve" smooth="yes"/>
      <point x="557" y="502"/>
      <point x="515" y="478"/>
      <point x="497" y="432" type="curve"/>
      <point x="493" y="432" type="line"/>
      <point x="474" y="486"/>
      <point x="435" y="502"/>
      <point x="372" y="502" type="curve" smooth="yes"/>
      <point x="291" y="502"/>
      <point x="256" y="468"/>
      <point x="235" y="433" type="curve"/>
      <point x="230" y="433" type="line"/>
      <point x="219" y="492" type="line"/>
      <point x="24" y="492" type="line"/>
      <point x="24" y="436" type="line"/>
      <point x="67" y="436"/>
      <point x="72" y="424"/>
      <point x="72" y="371" type="curve" smooth="yes"/>
      <point x="72" y="0" type="line"/>
    </contour>
  </outline>
</glyph>
<glyph name="uni0562" format="2">
  <advance width="557"/>
  <unicode hex="0562"/>
  <note>
uni0562
</note>
  <outline>
    <contour>
      <point x="235" y="-119" type="curve" smooth="yes"/>
      <point x="235" y="258" type="line" smooth="yes"/>
      <point x="235" y="338"/>
      <point x="248" y="412"/>
      <point x="290" y="412" type="curve" smooth="yes"/>
      <point x="326" y="412"/>
      <point x="335" y="362"/>
      <point x="335" y="277" type="curve" smooth="yes"/>
      <point x="335" y="210" type="line"/>
      <point x="535" y="210" type="line"/>
      <point x="535" y="266" type="line"/>
      <point x="503" y="266"/>
      <point x="497" y="274"/>
      <point x="497" y="309" type="curve" smooth="yes"/>
      <point x="497" y="332" type="line" smooth="yes"/>
      <point x="497" y="444"/>
      <point x="451" y="502"/>
      <point x="362" y="502" type="curve" smooth="yes"/>
      <point x="289" y="502"/>
      <point x="257" y="467"/>
      <point x="236" y="419" type="curve"/>
      <point x="232" y="419" type="line"/>
      <point x="221" y="492" type="line"/>
      <point x="20" y="492" type="line"/>
      <point x="20" y="436" type="line"/>
      <point x="62" y="436"/>
      <point x="72" y="426"/>
      <point x="72" y="372" type="curve" smooth="yes"/>
      <point x="72" y="-240" type="line"/>
      <point x="286" y="-240" type="line"/>
      <point x="286" y="-184" type="line"/>
      <point x="244" y="-184"/>
      <point x="235" y="-174"/>
    </contour>
    <contour>
      <point x="217" y="0" type="line"/>
      <point x="527" y="0" type="line"/>
      <point x="527" y="64" type="line"/>
      <point x="217" y="64" type="line"/>
    </contour>
  </outline>
</glyph>
<glyph name="uni0563" format="2">
  <advance width="597"/>
  <unicode hex="0563"/>
  <note>
uni0563
</note>
  <outline>
    <contour>
      <point x="359" y="492" type="line"/>
      <point x="339" y="423" type="line"/>
      <point x="331" y="423" type="line"/>
      <point x="302" y="479"/>
      <point x="264" y="502"/>
      <point x="205" y="502" type="curve" smooth="yes"/>
      <point x="98" y="502"/>
      <point x="34" y="411"/>
      <point x="34" y="248" type="curve" smooth="yes"/>
      <point x="34" y="82"/>
      <point x="99" y="-9"/>
      <point x="199" y="-9" type="curve" smooth="yes"/>
      <point x="258" y="-9"/>
      <point x="290" y="9"/>
      <point x="322" y="70" type="curve"/>
      <point x="330" y="70" type="line"/>
      <point x="323" y="0"/>
      <point x="323" y="-31"/>
      <point x="323" y="-57" type="curve" smooth="yes"/>
      <point x="323" y="-240" type="line"/>
      <point x="534" y="-240" type="line"/>
      <point x="534" y="-188" type="line"/>
      <point x="505" y="-188"/>
      <point x="486" y="-181"/>
      <point x="486" y="-137" type="curve" smooth="yes"/>
      <point x="486" y="492" type="line"/>
    </contour>
    <contour>
      <point x="260" y="67" type="curve" smooth="yes"/>
      <point x="207" y="67"/>
      <point x="200" y="159"/>
      <point x="200" y="247" type="curve" smooth="yes"/>
      <point x="200" y="336"/>
      <point x="205" y="426"/>
      <point x="257" y="426" type="curve" smooth="yes"/>
      <point x="305" y="426"/>
      <point x="323" y="376"/>
      <point x="323" y="247" type="curve" smooth="yes"/>
      <point x="323" y="135"/>
      <point x="312" y="67"/>
    </contour>
    <contour>
      <point x="443" y="0" type="line"/>
      <point x="591" y="0" type="line"/>
      <point x="591" y="63" type="line"/>
      <point x="443" y="63" type="line"/>
    </contour>
  </outline>
</glyph>
<glyph name="uni0565" format="2">
  <advance width="567"/>
  <unicode hex="0565"/>
  <note>
uni0565
</note>
  <outline>
    <contour>
      <point x="495" y="324" type="line"/>
      <point x="333" y="324" type="line"/>
      <point x="333" y="230" type="line" smooth="yes"/>
      <point x="333" y="138"/>
      <point x="318" y="80"/>
      <point x="279" y="80" type="curve" smooth="yes"/>
      <point x="244" y="80"/>
      <point x="234" y="137"/>
      <point x="234" y="222" type="curve" smooth="yes"/>
      <point x="234" y="760" type="line"/>
      <point x="22" y="760" type="line"/>
      <point x="22" y="704" type="line"/>
      <point x="65" y="704"/>
      <point x="70" y="696"/>
      <point x="70" y="633" type="curve" smooth="yes"/>
      <point x="70" y="188" type="line" smooth="yes"/>
      <point x="70" y="54"/>
      <point x="110" y="-10"/>
      <point x="212" y="-10" type="curve" smooth="yes"/>
      <point x="271" y="-10"/>
      <point x="309" y="17"/>
      <point x="333" y="69" type="curve"/>
      <point x="337" y="69" type="line"/>
      <point x="361" y="0" type="line"/>
      <point x="543" y="0" type="line"/>
      <point x="543" y="56" type="line"/>
      <point x="499" y="56"/>
      <point x="495" y="61"/>
      <point x="495" y="118" type="curve" smooth="yes"/>
    </contour>
    <contour>
      <point x="193" y="428" type="line"/>
      <point x="521" y="428" type="line"/>
      <point x="521" y="492" type="line"/>
      <point x="193" y="492" type="line"/>
    </contour>
  </outline>
</glyph>
<glyph name="uni0567" format="2">
  <advance width="511"/>
  <unicode hex="0567"/>
  <note>
uni0567
</note>
  <outline>
    <contour>
      <point x="471" y="428" type="line"/>
      <point x="471" y="492" type="line"/>
      <point x="234" y="492" type="line"/>
      <point x="234" y="760" type="line"/>
      <point x="22" y="760" type="line"/>
      <point x="22" y="704" type="line"/>
      <point x="65" y="704"/>
      <point x="70" y="696"/>
      <point x="70" y="633" type="curve" smooth="yes"/>
      <point x="70" y="9" type="line"/>
      <point x="79" y="0" type="line"/>
      <point x="86" y="0" type="line"/>
      <point x="134" y="21"/>
      <point x="191" y="33"/>
      <point x="249" y="33" type="curve" smooth="yes"/>
      <point x="306" y="33"/>
      <point x="335" y="14"/>
      <point x="335" y="-29" type="curve" smooth="yes"/>
      <point x="335" y="-86"/>
      <point x="304" y="-118"/>
      <point x="204" y="-118" type="curve"/>
      <point x="204" y="-155"/>
      <point x="249" y="-191"/>
      <point x="317" y="-191" type="curve" smooth="yes"/>
      <point x="402" y="-191"/>
      <point x="477" y="-134"/>
      <point x="477" y="-31" type="curve" smooth="yes"/>
      <point x="477" y="53"/>
      <point x="414" y="111"/>
      <point x="316" y="111" type="curve" smooth="yes"/>
      <point x="286" y="111"/>
      <point x="258" y="104"/>
      <point x="234" y="94" type="curve"/>
      <point x="234" y="428" type="line"/>
    </contour>
  </outline>
</glyph>
<glyph name="uni0569" format="2">
  <advance width="706"/>
  <unicode hex="0569"/>
  <note>
uni0569
</note>
  <outline>
    <contour>
      <point x="72" y="-240" type="line"/>
      <point x="283" y="-240" type="line"/>
      <point x="283" y="-188" type="line"/>
      <point x="254" y="-188"/>
      <point x="235" y="-181"/>
      <point x="235" y="-137" type="curve" smooth="yes"/>
      <point x="235" y="247" type="line" smooth="yes"/>
      <point x="235" y="371"/>
      <point x="268" y="426"/>
      <point x="355" y="426" type="curve" smooth="yes"/>
      <point x="449" y="426"/>
      <point x="473" y="371"/>
      <point x="473" y="247" type="curve" smooth="yes"/>
      <point x="473" y="86"/>
      <point x="469" y="54"/>
      <point x="442" y="54" type="curve" smooth="yes"/>
      <point x="422" y="54"/>
      <point x="407" y="81"/>
      <point x="407" y="138" type="curve" smooth="yes"/>
      <point x="407" y="198"/>
      <point x="424" y="229"/>
      <point x="454" y="229" type="curve" smooth="yes"/>
      <point x="509" y="229"/>
      <point x="598" y="214"/>
      <point x="680" y="185" type="curve"/>
      <point x="696" y="241" type="line"/>
      <point x="615" y="274"/>
      <point x="526" y="293"/>
      <point x="430" y="293" type="curve" smooth="yes"/>
      <point x="329" y="293"/>
      <point x="272" y="234"/>
      <point x="272" y="148" type="curve" smooth="yes"/>
      <point x="272" y="48"/>
      <point x="320" y="-10"/>
      <point x="447" y="-10" type="curve" smooth="yes"/>
      <point x="575" y="-10"/>
      <point x="633" y="86"/>
      <point x="633" y="247" type="curve" smooth="yes"/>
      <point x="633" y="410"/>
      <point x="538" y="502"/>
      <point x="395" y="502" type="curve" smooth="yes"/>
      <point x="317" y="502"/>
      <point x="266" y="479"/>
      <point x="227" y="423" type="curve"/>
      <point x="219" y="423" type="line"/>
      <point x="199" y="492" type="line"/>
      <point x="20" y="492" type="line"/>
      <point x="20" y="436" type="line"/>
      <point x="62" y="436"/>
      <point x="72" y="426"/>
      <point x="72" y="386" type="curve" smooth="yes"/>
    </contour>
  </outline>
</glyph>
<glyph name="uni056A" format="2">
  <advance width="607"/>
  <unicode hex="056A"/>
  <note>
uni056A
</note>
  <outline>
    <contour>
      <point x="337" y="492" type="line"/>
      <point x="233" y="492" type="line" smooth="yes"/>
      <point x="122" y="492"/>
      <point x="34" y="419"/>
      <point x="34" y="251" type="curve" smooth="yes"/>
      <point x="34" y="84"/>
      <point x="124" y="-10"/>
      <point x="267" y="-10" type="curve" smooth="yes"/>
      <point x="427" y="-10"/>
      <point x="498" y="92"/>
      <point x="498" y="255" type="curve" smooth="yes"/>
      <point x="498" y="760" type="line"/>
      <point x="289" y="760" type="line"/>
      <point x="289" y="704" type="line"/>
      <point x="318" y="704"/>
      <point x="337" y="697"/>
      <point x="337" y="653" type="curve" smooth="yes"/>
    </contour>
    <contour>
      <point x="275" y="428" type="curve" smooth="yes"/>
      <point x="337" y="428" type="line"/>
      <point x="337" y="247" type="line" smooth="yes"/>
      <point x="337" y="130"/>
      <point x="322" y="54"/>
      <point x="272" y="54" type="curve" smooth="yes"/>
      <point x="220" y="54"/>
      <point x="199" y="117"/>
      <point x="199" y="249" type="curve" smooth="yes"/>
      <point x="199" y="384"/>
      <point x="229" y="428"/>
    </contour>
    <contour>
      <point x="476" y="492" type="line"/>
      <point x="476" y="428" type="line"/>
      <point x="603" y="428" type="line"/>
      <point x="603" y="492" type="line"/>
    </contour>
  </outline>
</glyph>
<glyph name="uni056B" format="2">
  <advance width="567"/>
  <unicode hex="056B"/>
  <note>
uni056B
</note>
  <outline>
    <contour>
      <point x="545" y="56" type="line"/>
      <point x="503" y="56"/>
      <point x="497" y="64"/>
      <point x="497" y="126" type="curve" smooth="yes"/>
      <point x="497" y="309" type="line" smooth="yes"/>
      <point x="497" y="444"/>
      <point x="451" y="502"/>
      <point x="362" y="502" type="curve" smooth="yes"/>
      <point x="289" y="502"/>
      <point x="257" y="467"/>
      <point x="236" y="419" type="curve"/>
      <point x="232" y="419" type="line"/>
      <point x="234" y="443"/>
      <point x="235" y="469"/>
      <point x="235" y="493" type="curve" smooth="yes"/>
      <point x="235" y="760" type="line"/>
      <point x="20" y="760" type="line"/>
      <point x="20" y="704" type="line"/>
      <point x="62" y="704"/>
      <point x="72" y="694"/>
      <point x="72" y="640" type="curve" smooth="yes"/>
      <point x="72" y="-240" type="line"/>
      <point x="286" y="-240" type="line"/>
      <point x="286" y="-184" type="line"/>
      <point x="244" y="-184"/>
      <point x="235" y="-174"/>
      <point x="235" y="-119" type="curve" smooth="yes"/>
      <point x="235" y="258" type="line" smooth="yes"/>
      <point x="235" y="338"/>
      <point x="248" y="412"/>
      <point x="290" y="412" type="curve" smooth="yes"/>
      <point x="326" y="412"/>
      <point x="334" y="362"/>
      <point x="334" y="277" type="curve" smooth="yes"/>
      <point x="334" y="0" type="line"/>
      <point x="545" y="0" type="line"/>
    </contour>
  </outline>
</glyph>
<glyph name="uni056C" format="2">
  <advance width="360"/>
  <unicode hex="056C"/>
  <note>
uni056C
</note>
  <outline>
    <contour>
      <point x="380" y="-129" type="line"/>
      <point x="326" y="-129" type="line"/>
      <point x="326" y="-167"/>
      <point x="318" y="-176"/>
      <point x="282" y="-176" type="curve" smooth="yes"/>
      <point x="235" y="-176" type="line"/>
      <point x="235" y="492" type="line"/>
      <point x="20" y="492" type="line"/>
      <point x="20" y="436" type="line"/>
      <point x="31" y="436" type="line" smooth="yes"/>
      <point x="65" y="436"/>
      <point x="72" y="430"/>
      <point x="72" y="387" type="curve" smooth="yes"/>
      <point x="72" y="-240" type="line"/>
      <point x="380" y="-240" type="line"/>
    </contour>
  </outline>
</glyph>
<glyph name="uni056D" format="2">
  <advance width="831"/>
  <unicode hex="056D"/>
  <note>
uni056D
</note>
  <outline>
    <contour>
      <point x="759" y="118" type="curve" smooth="yes"/>
      <point x="759" y="492" type="line"/>
      <point x="548" y="492" type="line"/>
      <point x="548" y="436" type="line"/>
      <point x="584" y="436"/>
      <point x="596" y="427"/>
      <point x="596" y="374" type="curve" smooth="yes"/>
      <point x="596" y="230" type="line" smooth="yes"/>
      <point x="596" y="138"/>
      <point x="582" y="80"/>
      <point x="543" y="80" type="curve" smooth="yes"/>
      <point x="508" y="80"/>
      <point x="498" y="137"/>
      <point x="498" y="222" type="curve" smooth="yes"/>
      <point x="498" y="309" type="line" smooth="yes"/>
      <point x="498" y="444"/>
      <point x="451" y="502"/>
      <point x="362" y="502" type="curve" smooth="yes"/>
      <point x="289" y="502"/>
      <point x="257" y="467"/>
      <point x="236" y="419" type="curve"/>
      <point x="232" y="419" type="line"/>
      <point x="234" y="443"/>
      <point x="235" y="469"/>
      <point x="235" y="493" type="curve" smooth="yes"/>
      <point x="235" y="760" type="line"/>
      <point x="20" y="760" type="line"/>
      <point x="20" y="704" type="line"/>
      <point x="62" y="704"/>
      <point x="72" y="694"/>
      <point x="72" y="640" type="curve" smooth="yes"/>
      <point x="72" y="-240" type="line"/>
      <point x="286" y="-240" type="line"/>
      <point x="286" y="-184" type="line"/>
      <point x="244" y="-184"/>
      <point x="235" y="-174"/>
      <point x="235" y="-119" type="curve" smooth="yes"/>
      <point x="235" y="258" type="line" smooth="yes"/>
      <point x="235" y="338"/>
      <point x="248" y="412"/>
      <point x="290" y="412" type="curve" smooth="yes"/>
      <point x="326" y="412"/>
      <point x="335" y="362"/>
      <point x="335" y="277" type="curve" smooth="yes"/>
      <point x="335" y="188" type="line" smooth="yes"/>
      <point x="335" y="54"/>
      <point x="374" y="-10"/>
      <point x="476" y="-10" type="curve" smooth="yes"/>
      <point x="535" y="-10"/>
      <point x="572" y="17"/>
      <point x="596" y="69" type="curve"/>
      <point x="600" y="69" type="line"/>
      <point x="624" y="0" type="line"/>
      <point x="807" y="0" type="line"/>
      <point x="807" y="56" type="line"/>
      <point x="763" y="56"/>
      <point x="759" y="61"/>
    </contour>
  </outline>
</glyph>
<glyph name="uni056E" format="2">
  <advance width="538"/>
  <unicode hex="056E"/>
  <note>
uni056E
</note>
  <outline>
    <contour>
      <point x="267" y="-10" type="curve" smooth="yes"/>
      <point x="427" y="-10"/>
      <point x="498" y="92"/>
      <point x="498" y="255" type="curve" smooth="yes"/>
      <point x="498" y="313"/>
      <point x="485" y="370"/>
      <point x="455" y="428" type="curve"/>
      <point x="523" y="428" type="line"/>
      <point x="523" y="492" type="line"/>
      <point x="245" y="492" type="line" smooth="yes"/>
      <point x="122" y="492"/>
      <point x="34" y="409"/>
      <point x="34" y="240" type="curve" smooth="yes"/>
      <point x="34" y="84"/>
      <point x="124" y="-10"/>
    </contour>
    <contour>
      <point x="267" y="54" type="curve" smooth="yes"/>
      <point x="218" y="54"/>
      <point x="199" y="117"/>
      <point x="199" y="240" type="curve" smooth="yes"/>
      <point x="199" y="384"/>
      <point x="224" y="428"/>
      <point x="266" y="428" type="curve" smooth="yes"/>
      <point x="294" y="428" type="line"/>
      <point x="329" y="368"/>
      <point x="337" y="307"/>
      <point x="337" y="247" type="curve" smooth="yes"/>
      <point x="337" y="130"/>
      <point x="320" y="54"/>
    </contour>
    <contour>
      <point x="268" y="483" type="curve"/>
      <point x="424" y="483" type="line"/>
      <point x="409" y="498"/>
      <point x="380" y="536"/>
      <point x="360" y="568" type="curve" smooth="yes"/>
      <point x="337" y="605"/>
      <point x="333" y="626"/>
      <point x="333" y="645" type="curve" smooth="yes"/>
      <point x="333" y="668"/>
      <point x="343" y="687"/>
      <point x="362" y="713" type="curve"/>
      <point x="333" y="743"/>
      <point x="295" y="765"/>
      <point x="251" y="765" type="curve" smooth="yes"/>
      <point x="196" y="765"/>
      <point x="155" y="732"/>
      <point x="155" y="681" type="curve" smooth="yes"/>
      <point x="155" y="655"/>
      <point x="160" y="629"/>
      <point x="190" y="585" type="curve" smooth="yes"/>
      <point x="222" y="538"/>
      <point x="250" y="503"/>
    </contour>
  </outline>
</glyph>
<glyph name="uni056F" format="2">
  <advance width="567"/>
  <unicode hex="056F"/>
  <note>
uni056F
</note>
  <outline>
    <contour>
      <point x="332" y="-240" type="line"/>
      <point x="543" y="-240" type="line"/>
      <point x="543" y="-184" type="line"/>
      <point x="499" y="-184"/>
      <point x="495" y="-179"/>
      <point x="495" y="-122" type="curve" smooth="yes"/>
      <point x="495" y="492" type="line"/>
      <point x="284" y="492" type="line"/>
      <point x="284" y="436" type="line"/>
      <point x="320" y="436"/>
      <point x="332" y="427"/>
      <point x="332" y="374" type="curve" smooth="yes"/>
      <point x="332" y="230" type="line" smooth="yes"/>
      <point x="332" y="138"/>
      <point x="317" y="80"/>
      <point x="278" y="80" type="curve" smooth="yes"/>
      <point x="243" y="80"/>
      <point x="233" y="137"/>
      <point x="233" y="222" type="curve" smooth="yes"/>
      <point x="233" y="760" type="line"/>
      <point x="22" y="760" type="line"/>
      <point x="22" y="704" type="line"/>
      <point x="65" y="704"/>
      <point x="70" y="696"/>
      <point x="70" y="633" type="curve" smooth="yes"/>
      <point x="70" y="188" type="line" smooth="yes"/>
      <point x="70" y="54"/>
      <point x="110" y="-10"/>
      <point x="212" y="-10" type="curve" smooth="yes"/>
      <point x="271" y="-10"/>
      <point x="308" y="17"/>
      <point x="332" y="69" type="curve"/>
      <point x="336" y="69" type="line"/>
      <point x="334" y="46"/>
      <point x="332" y="22"/>
      <point x="332" y="-1" type="curve" smooth="yes"/>
    </contour>
  </outline>
</glyph>
<glyph name="uni0570" format="2">
  <advance width="528"/>
  <unicode hex="0570"/>
  <note>
uni0570
</note>
  <outline>
    <contour>
      <point x="200" y="173" type="line"/>
      <point x="200" y="213"/>
      <point x="213" y="267"/>
      <point x="255" y="267" type="curve" smooth="yes"/>
      <point x="291" y="267"/>
      <point x="299" y="217"/>
      <point x="299" y="137" type="curve" smooth="yes"/>
      <point x="299" y="0" type="line"/>
      <point x="510" y="0" type="line"/>
      <point x="510" y="56" type="line"/>
      <point x="468" y="56"/>
      <point x="462" y="64"/>
      <point x="462" y="126" type="curve" smooth="yes"/>
      <point x="462" y="164" type="line" smooth="yes"/>
      <point x="462" y="299"/>
      <point x="416" y="357"/>
      <point x="327" y="357" type="curve" smooth="yes"/>
      <point x="254" y="357"/>
      <point x="219" y="322"/>
      <point x="198" y="274" type="curve"/>
      <point x="194" y="274" type="line"/>
      <point x="204" y="564"/>
      <point x="237" y="700"/>
      <point x="305" y="700" type="curve" smooth="yes"/>
      <point x="346" y="700"/>
      <point x="364" y="667"/>
      <point x="364" y="569" type="curve"/>
      <point x="454" y="569"/>
      <point x="499" y="597"/>
      <point x="499" y="657" type="curve" smooth="yes"/>
      <point x="499" y="718"/>
      <point x="434" y="764"/>
      <point x="332" y="764" type="curve" smooth="yes"/>
      <point x="120" y="764"/>
      <point x="31" y="563"/>
      <point x="31" y="217" type="curve"/>
    </contour>
  </outline>
</glyph>
<glyph name="uni0571" format="2">
  <advance width="551"/>
  <unicode hex="0571"/>
  <note>
uni0571
</note>
  <outline>
    <contour>
      <point x="178" y="-9" type="curve" smooth="yes"/>
      <point x="275" y="-9"/>
      <point x="322" y="40"/>
      <point x="362" y="125" type="curve"/>
      <point x="332" y="160" type="line"/>
      <point x="291" y="103"/>
      <point x="268" y="80"/>
      <point x="235" y="80" type="curve" smooth="yes"/>
      <point x="208" y="80"/>
      <point x="193" y="109"/>
      <point x="193" y="173" type="curve" smooth="yes"/>
      <point x="193" y="276"/>
      <point x="227" y="339"/>
      <point x="354" y="432" type="curve" smooth="yes"/>
      <point x="503" y="541"/>
      <point x="514" y="547"/>
      <point x="514" y="590" type="curve" smooth="yes"/>
      <point x="514" y="628"/>
      <point x="498" y="639"/>
      <point x="369" y="665" type="curve" smooth="yes"/>
      <point x="258" y="687"/>
      <point x="235" y="721"/>
      <point x="235" y="775" type="curve"/>
      <point x="147" y="775"/>
      <point x="99" y="745"/>
      <point x="99" y="685" type="curve" smooth="yes"/>
      <point x="99" y="612"/>
      <point x="144" y="590"/>
      <point x="286" y="576" type="curve" smooth="yes"/>
      <point x="374" y="567"/>
      <point x="375" y="564"/>
      <point x="375" y="550" type="curve" smooth="yes"/>
      <point x="375" y="535"/>
      <point x="367" y="528"/>
      <point x="272" y="462" type="curve" smooth="yes"/>
      <point x="67" y="318"/>
      <point x="30" y="260"/>
      <point x="30" y="160" type="curve" smooth="yes"/>
      <point x="30" y="71"/>
      <point x="69" y="-9"/>
    </contour>
    <contour>
      <point x="442" y="541" type="line"/>
      <point x="291" y="469" type="line"/>
      <point x="333" y="74" type="line"/>
      <point x="336" y="74" type="line"/>
      <point x="344" y="0" type="line"/>
      <point x="536" y="0" type="line"/>
      <point x="536" y="56" type="line"/>
      <point x="508" y="56"/>
      <point x="499" y="61"/>
      <point x="493" y="111" type="curve" smooth="yes"/>
    </contour>
  </outline>
</glyph>
<glyph name="uni0572" format="2">
  <advance width="579"/>
  <unicode hex="0572"/>
  <note>
uni0572
</note>
  <outline>
    <contour>
      <point x="362" y="502" type="curve" smooth="yes"/>
      <point x="289" y="502"/>
      <point x="257" y="467"/>
      <point x="236" y="419" type="curve"/>
      <point x="232" y="419" type="line"/>
      <point x="221" y="492" type="line"/>
      <point x="20" y="492" type="line"/>
      <point x="20" y="436" type="line"/>
      <point x="62" y="436"/>
      <point x="72" y="426"/>
      <point x="72" y="372" type="curve" smooth="yes"/>
      <point x="72" y="0" type="line"/>
      <point x="286" y="0" type="line"/>
      <point x="286" y="56" type="line"/>
      <point x="244" y="56"/>
      <point x="235" y="66"/>
      <point x="235" y="121" type="curve" smooth="yes"/>
      <point x="235" y="258" type="line" smooth="yes"/>
      <point x="235" y="338"/>
      <point x="248" y="412"/>
      <point x="290" y="412" type="curve" smooth="yes"/>
      <point x="325" y="412"/>
      <point x="334" y="362"/>
      <point x="334" y="277" type="curve" smooth="yes"/>
      <point x="334" y="-240" type="line"/>
      <point x="497" y="-240" type="line"/>
      <point x="497" y="309" type="line" smooth="yes"/>
      <point x="497" y="444"/>
      <point x="451" y="502"/>
    </contour>
    <contour>
      <point x="380" y="-240" type="line"/>
      <point x="599" y="-240" type="line"/>
      <point x="599" y="-177" type="line"/>
      <point x="380" y="-177" type="line"/>
    </contour>
  </outline>
</glyph>
<glyph name="uni0573" format="2">
  <advance width="540"/>
  <unicode hex="0573"/>
  <note>
uni0573
</note>
  <outline>
    <contour>
      <point x="187" y="-10" type="curve" smooth="yes"/>
      <point x="246" y="-10"/>
      <point x="283" y="17"/>
      <point x="307" y="69" type="curve"/>
      <point x="311" y="69" type="line"/>
      <point x="335" y="0" type="line"/>
      <point x="518" y="0" type="line"/>
      <point x="518" y="56" type="line"/>
      <point x="474" y="56"/>
      <point x="470" y="61"/>
      <point x="470" y="118" type="curve" smooth="yes"/>
      <point x="470" y="230" type="line" smooth="yes"/>
      <point x="470" y="442"/>
      <point x="359" y="502"/>
      <point x="13" y="502" type="curve"/>
      <point x="13" y="438" type="line"/>
      <point x="266" y="438"/>
      <point x="307" y="358"/>
      <point x="307" y="230" type="curve" smooth="yes"/>
      <point x="307" y="138"/>
      <point x="292" y="80"/>
      <point x="253" y="80" type="curve" smooth="yes"/>
      <point x="218" y="80"/>
      <point x="208" y="116"/>
      <point x="208" y="221" type="curve" smooth="yes"/>
      <point x="208" y="522"/>
      <point x="268" y="700"/>
      <point x="348" y="700" type="curve" smooth="yes"/>
      <point x="379" y="700"/>
      <point x="397" y="667"/>
      <point x="397" y="569" type="curve"/>
      <point x="487" y="569"/>
      <point x="532" y="597"/>
      <point x="532" y="657" type="curve" smooth="yes"/>
      <point x="532" y="718"/>
      <point x="467" y="764"/>
      <point x="365" y="764" type="curve" smooth="yes"/>
      <point x="173" y="764"/>
      <point x="45" y="536"/>
      <point x="45" y="217" type="curve" smooth="yes"/>
      <point x="45" y="53"/>
      <point x="85" y="-10"/>
    </contour>
  </outline>
</glyph>
<glyph name="uni0574" format="2">
  <advance width="567"/>
  <unicode hex="0574"/>
  <note>
uni0574
</note>
  <outline>
    <contour>
      <point x="495" y="118" type="curve" smooth="yes"/>
      <point x="495" y="387" type="line" smooth="yes"/>
      <point x="495" y="455"/>
      <point x="481" y="488"/>
      <point x="459" y="517" type="curve" smooth="yes"/>
      <point x="428" y="558"/>
      <point x="416" y="584"/>
      <point x="416" y="627" type="curve" smooth="yes"/>
      <point x="416" y="672"/>
      <point x="423" y="696"/>
      <point x="442" y="696" type="curve" smooth="yes"/>
      <point x="460" y="696"/>
      <point x="468" y="663"/>
      <point x="468" y="571" type="curve"/>
      <point x="554" y="571"/>
      <point x="603" y="599"/>
      <point x="603" y="650" type="curve" smooth="yes"/>
      <point x="603" y="711"/>
      <point x="559" y="760"/>
      <point x="433" y="760" type="curve" smooth="yes"/>
      <point x="339" y="760"/>
      <point x="253" y="725"/>
      <point x="253" y="610" type="curve" smooth="yes"/>
      <point x="253" y="567"/>
      <point x="266" y="526"/>
      <point x="299" y="482" type="curve" smooth="yes"/>
      <point x="322" y="452"/>
      <point x="332" y="417"/>
      <point x="332" y="376" type="curve" smooth="yes"/>
      <point x="332" y="230" type="line" smooth="yes"/>
      <point x="332" y="138"/>
      <point x="317" y="80"/>
      <point x="278" y="80" type="curve" smooth="yes"/>
      <point x="243" y="80"/>
      <point x="233" y="137"/>
      <point x="233" y="222" type="curve" smooth="yes"/>
      <point x="233" y="492" type="line"/>
      <point x="22" y="492" type="line"/>
      <point x="22" y="436" type="line"/>
      <point x="65" y="436"/>
      <point x="70" y="428"/>
      <point x="70" y="365" type="curve" smooth="yes"/>
      <point x="70" y="188" type="line" smooth="yes"/>
      <point x="70" y="54"/>
      <point x="110" y="-10"/>
      <point x="212" y="-10" type="curve" smooth="yes"/>
      <point x="271" y="-10"/>
      <point x="308" y="17"/>
      <point x="332" y="69" type="curve"/>
      <point x="336" y="69" type="line"/>
      <point x="360" y="0" type="line"/>
      <point x="543" y="0" type="line"/>
      <point x="543" y="56" type="line"/>
      <point x="499" y="56"/>
      <point x="495" y="61"/>
    </contour>
  </outline>
</glyph>
<glyph name="uni0575" format="2">
  <advance width="303"/>
  <unicode hex="0575"/>
  <note>
uni0575
</note>
  <outline>
    <contour>
      <point x="70" y="137" type="line" smooth="yes"/>
      <point x="70" y="27"/>
      <point x="104" y="-10"/>
      <point x="104" y="-87" type="curve" smooth="yes"/>
      <point x="104" y="-141"/>
      <point x="84" y="-177"/>
      <point x="31" y="-177" type="curve" smooth="yes"/>
      <point x="25" y="-177" type="line"/>
      <point x="25" y="-240" type="line"/>
      <point x="43" y="-240" type="line" smooth="yes"/>
      <point x="206" y="-240"/>
      <point x="267" y="-183"/>
      <point x="267" y="-82" type="curve" smooth="yes"/>
      <point x="267" y="-4"/>
      <point x="233" y="30"/>
      <point x="233" y="137" type="curve" smooth="yes"/>
      <point x="233" y="492" type="line"/>
      <point x="18" y="492" type="line"/>
      <point x="18" y="436" type="line"/>
      <point x="28" y="436" type="line" smooth="yes"/>
      <point x="65" y="436"/>
      <point x="70" y="425"/>
      <point x="70" y="365" type="curve" smooth="yes"/>
    </contour>
  </outline>
</glyph>
<glyph name="uni0576" format="2">
  <advance width="562"/>
  <unicode hex="0576"/>
  <note>
uni0576
</note>
  <outline>
    <contour>
      <point x="191" y="-10" type="curve" smooth="yes"/>
      <point x="255" y="-10"/>
      <point x="301" y="17"/>
      <point x="327" y="69" type="curve"/>
      <point x="331" y="69" type="line"/>
      <point x="355" y="0" type="line"/>
      <point x="538" y="0" type="line"/>
      <point x="538" y="56" type="line"/>
      <point x="494" y="56"/>
      <point x="490" y="61"/>
      <point x="490" y="118" type="curve" smooth="yes"/>
      <point x="490" y="492" type="line"/>
      <point x="289" y="492" type="line"/>
      <point x="289" y="436" type="line"/>
      <point x="320" y="436"/>
      <point x="327" y="427"/>
      <point x="327" y="374" type="curve" smooth="yes"/>
      <point x="327" y="230" type="line" smooth="yes"/>
      <point x="327" y="133"/>
      <point x="303" y="80"/>
      <point x="255" y="80" type="curve" smooth="yes"/>
      <point x="212" y="80"/>
      <point x="194" y="127"/>
      <point x="194" y="222" type="curve" smooth="yes"/>
      <point x="194" y="330"/>
      <point x="206" y="397"/>
      <point x="245" y="507" type="curve"/>
      <point x="149" y="523" type="line"/>
      <point x="65" y="397"/>
      <point x="31" y="307"/>
      <point x="31" y="188" type="curve" smooth="yes"/>
      <point x="31" y="54"/>
      <point x="80" y="-10"/>
    </contour>
    <contour>
      <point x="245" y="521" type="line"/>
      <point x="167" y="536"/>
      <point x="155" y="567"/>
      <point x="155" y="612" type="curve" smooth="yes"/>
      <point x="155" y="660"/>
      <point x="169" y="691"/>
      <point x="281" y="691" type="curve"/>
      <point x="279" y="737"/>
      <point x="243" y="764"/>
      <point x="163" y="764" type="curve" smooth="yes"/>
      <point x="67" y="764"/>
      <point x="16" y="700"/>
      <point x="16" y="629" type="curve" smooth="yes"/>
      <point x="16" y="556"/>
      <point x="59" y="503"/>
      <point x="137" y="485" type="curve"/>
      <point x="245" y="507" type="line"/>
    </contour>
  </outline>
</glyph>
<glyph name="uni0577" format="2">
  <advance width="470"/>
  <unicode hex="0577"/>
  <note>
uni0577
</note>
  <outline>
    <contour>
      <point x="212" y="502" type="curve" smooth="yes"/>
      <point x="82" y="502"/>
      <point x="20" y="439"/>
      <point x="20" y="369" type="curve" smooth="yes"/>
      <point x="20" y="311"/>
      <point x="51" y="290"/>
      <point x="146" y="290" type="curve"/>
      <point x="146" y="393"/>
      <point x="172" y="438"/>
      <point x="206" y="438" type="curve" smooth="yes"/>
      <point x="242" y="438"/>
      <point x="263" y="410"/>
      <point x="263" y="308" type="curve" smooth="yes"/>
      <point x="263" y="220"/>
      <point x="242" y="151"/>
      <point x="142" y="36" type="curve" smooth="yes"/>
      <point x="42" y="-80"/>
      <point x="27" y="-113"/>
      <point x="27" y="-154" type="curve" smooth="yes"/>
      <point x="27" y="-220"/>
      <point x="52" y="-240"/>
      <point x="128" y="-240" type="curve" smooth="yes"/>
      <point x="410" y="-240" type="line"/>
      <point x="410" y="-166" type="line"/>
      <point x="233" y="-166" type="line" smooth="yes"/>
      <point x="197" y="-166"/>
      <point x="188" y="-153"/>
      <point x="188" y="-132" type="curve" smooth="yes"/>
      <point x="188" y="-87"/>
      <point x="201" y="-53"/>
      <point x="288" y="41" type="curve" smooth="yes"/>
      <point x="389" y="151"/>
      <point x="428" y="211"/>
      <point x="428" y="308" type="curve" smooth="yes"/>
      <point x="428" y="443"/>
      <point x="350" y="502"/>
    </contour>
  </outline>
</glyph>
<glyph name="uni0579" format="2">
  <advance width="418"/>
  <unicode hex="0579"/>
  <note>
uni0579
</note>
  <outline>
    <contour>
      <point x="351" y="262" type="line"/>
      <point x="171" y="262" type="line"/>
      <point x="37" y="0" type="line" smooth="yes"/>
      <point x="1" y="-70"/>
      <point x="-12" y="-113"/>
      <point x="-12" y="-154" type="curve" smooth="yes"/>
      <point x="-12" y="-213"/>
      <point x="18" y="-240"/>
      <point x="94" y="-240" type="curve" smooth="yes"/>
      <point x="376" y="-240" type="line"/>
      <point x="376" y="-166" type="line"/>
      <point x="219" y="-166" type="line" smooth="yes"/>
      <point x="183" y="-166"/>
      <point x="169" y="-153"/>
      <point x="169" y="-132" type="curve" smooth="yes"/>
      <point x="169" y="-102"/>
      <point x="180" y="-80"/>
      <point x="207" y="-26" type="curve" smooth="yes"/>
    </contour>
    <contour>
      <point x="194" y="492" type="curve"/>
      <point x="104" y="492" type="line"/>
      <point x="78" y="466"/>
      <point x="65" y="426"/>
      <point x="65" y="394" type="curve" smooth="yes"/>
      <point x="65" y="348"/>
      <point x="82" y="313"/>
      <point x="119" y="275" type="curve" smooth="yes"/>
      <point x="198" y="193" type="line"/>
      <point x="351" y="262" type="line"/>
      <point x="229" y="380" type="line" smooth="yes"/>
      <point x="193" y="415"/>
      <point x="189" y="430"/>
      <point x="189" y="451" type="curve" smooth="yes"/>
      <point x="189" y="465"/>
      <point x="191" y="480"/>
    </contour>
  </outline>
</glyph>
<glyph name="uni057A" format="2">
  <advance width="843"/>
  <unicode hex="057A"/>
  <note>
uni057A
</note>
  <outline>
    <contour>
      <point x="561" y="492" type="line"/>
      <point x="561" y="436" type="line"/>
      <point x="598" y="436"/>
      <point x="609" y="427"/>
      <point x="609" y="371" type="curve" smooth="yes"/>
      <point x="609" y="230" type="line" smooth="yes"/>
      <point x="609" y="129"/>
      <point x="593" y="77"/>
      <point x="552" y="77" type="curve" smooth="yes"/>
      <point x="514" y="77"/>
      <point x="503" y="126"/>
      <point x="503" y="211" type="curve" smooth="yes"/>
      <point x="503" y="492" type="line"/>
      <point x="293" y="492" type="line"/>
      <point x="293" y="436" type="line"/>
      <point x="330" y="436"/>
      <point x="341" y="427"/>
      <point x="341" y="366" type="curve" smooth="yes"/>
      <point x="341" y="218" type="line" smooth="yes"/>
      <point x="341" y="122"/>
      <point x="323" y="77"/>
      <point x="283" y="77" type="curve" smooth="yes"/>
      <point x="245" y="77"/>
      <point x="232" y="126"/>
      <point x="232" y="211" type="curve" smooth="yes"/>
      <point x="232" y="492" type="line"/>
      <point x="22" y="492" type="line"/>
      <point x="22" y="436" type="line"/>
      <point x="62" y="436"/>
      <point x="70" y="427"/>
      <point x="70" y="366" type="curve" smooth="yes"/>
      <point x="70" y="179" type="line" smooth="yes"/>
      <point x="70" y="44"/>
      <point x="122" y="-10"/>
      <point x="214" y="-10" type="curve" smooth="yes"/>
      <point x="286" y="-10"/>
      <point x="328" y="14"/>
      <point x="346" y="60" type="curve"/>
      <point x="350" y="60" type="line"/>
      <point x="369" y="6"/>
      <point x="408" y="-10"/>
      <point x="471" y="-10" type="curve" smooth="yes"/>
      <point x="552" y="-10"/>
      <point x="587" y="24"/>
      <point x="608" y="59" type="curve"/>
      <point x="613" y="59" type="line"/>
      <point x="611" y="36"/>
      <point x="609" y="13"/>
      <point x="609" y="-10" type="curve" smooth="yes"/>
      <point x="609" y="-240" type="line"/>
      <point x="819" y="-240" type="line"/>
      <point x="819" y="-184" type="line"/>
      <point x="776" y="-184"/>
      <point x="771" y="-172"/>
      <point x="771" y="-119" type="curve" smooth="yes"/>
      <point x="771" y="492" type="line"/>
    </contour>
  </outline>
</glyph>
<glyph name="uni057B" format="2">
  <advance width="524"/>
  <unicode hex="057B"/>
  <note>
uni057B
</note>
  <outline>
    <contour>
      <point x="181" y="-240" type="curve" smooth="yes"/>
      <point x="454" y="-240" type="line"/>
      <point x="454" y="-166" type="line"/>
      <point x="286" y="-166" type="line" smooth="yes"/>
      <point x="250" y="-166"/>
      <point x="241" y="-153"/>
      <point x="241" y="-132" type="curve" smooth="yes"/>
      <point x="241" y="-87"/>
      <point x="254" y="-53"/>
      <point x="341" y="41" type="curve" smooth="yes"/>
      <point x="442" y="151"/>
      <point x="482" y="211"/>
      <point x="482" y="322" type="curve" smooth="yes"/>
      <point x="482" y="443"/>
      <point x="400" y="502"/>
      <point x="262" y="502" type="curve" smooth="yes"/>
      <point x="124" y="502"/>
      <point x="42" y="430"/>
      <point x="42" y="342" type="curve" smooth="yes"/>
      <point x="42" y="259"/>
      <point x="73" y="210"/>
      <point x="102" y="164" type="curve" smooth="yes"/>
      <point x="127" y="124"/>
      <point x="150" y="85"/>
      <point x="150" y="19" type="curve" smooth="yes"/>
      <point x="150" y="-12"/>
      <point x="142" y="-26"/>
      <point x="108" y="-74" type="curve"/>
      <point x="178" y="-74" type="line"/>
      <point x="229" y="-17"/>
      <point x="248" y="22"/>
      <point x="248" y="80" type="curve" smooth="yes"/>
      <point x="248" y="140"/>
      <point x="238" y="176"/>
      <point x="227" y="212" type="curve" smooth="yes"/>
      <point x="217" y="245"/>
      <point x="207" y="279"/>
      <point x="207" y="335" type="curve" smooth="yes"/>
      <point x="207" y="399"/>
      <point x="226" y="438"/>
      <point x="262" y="438" type="curve" smooth="yes"/>
      <point x="298" y="438"/>
      <point x="317" y="410"/>
      <point x="317" y="330" type="curve" smooth="yes"/>
      <point x="317" y="220"/>
      <point x="295" y="151"/>
      <point x="195" y="36" type="curve" smooth="yes"/>
      <point x="95" y="-80"/>
      <point x="80" y="-113"/>
      <point x="80" y="-154" type="curve" smooth="yes"/>
      <point x="80" y="-220"/>
      <point x="105" y="-240"/>
    </contour>
  </outline>
</glyph>
<glyph name="uni057C" format="2">
  <advance width="577"/>
  <unicode hex="057C"/>
  <note>
uni057C
</note>
  <outline>
    <contour>
      <point x="365" y="0" type="line"/>
      <point x="573" y="0" type="line"/>
      <point x="573" y="64" type="line"/>
      <point x="365" y="64" type="line"/>
    </contour>
    <contour>
      <point x="354" y="502" type="curve" smooth="yes"/>
      <point x="295" y="502"/>
      <point x="257" y="467"/>
      <point x="236" y="419" type="curve"/>
      <point x="232" y="419" type="line"/>
      <point x="221" y="492" type="line"/>
      <point x="20" y="492" type="line"/>
      <point x="20" y="436" type="line"/>
      <point x="62" y="436"/>
      <point x="72" y="426"/>
      <point x="72" y="372" type="curve" smooth="yes"/>
      <point x="72" y="0" type="line"/>
      <point x="235" y="0" type="line"/>
      <point x="235" y="258" type="line" smooth="yes"/>
      <point x="235" y="338"/>
      <point x="248" y="412"/>
      <point x="290" y="412" type="curve" smooth="yes"/>
      <point x="327" y="412"/>
      <point x="345" y="365"/>
      <point x="345" y="270" type="curve" smooth="yes"/>
      <point x="345" y="187"/>
      <point x="334" y="101"/>
      <point x="300" y="0" type="curve"/>
      <point x="395" y="0" type="line"/>
      <point x="473" y="115"/>
      <point x="508" y="202"/>
      <point x="508" y="304" type="curve" smooth="yes"/>
      <point x="508" y="438"/>
      <point x="459" y="502"/>
    </contour>
  </outline>
</glyph>
<glyph name="uni057D" format="2">
  <advance width="567"/>
  <unicode hex="057D"/>
  <note>
uni057D
</note>
  <outline>
    <contour>
      <point x="212" y="-10" type="curve" smooth="yes"/>
      <point x="271" y="-10"/>
      <point x="308" y="17"/>
      <point x="332" y="69" type="curve"/>
      <point x="336" y="69" type="line"/>
      <point x="360" y="0" type="line"/>
      <point x="543" y="0" type="line"/>
      <point x="543" y="56" type="line"/>
      <point x="499" y="56"/>
      <point x="495" y="61"/>
      <point x="495" y="118" type="curve" smooth="yes"/>
      <point x="495" y="492" type="line"/>
      <point x="284" y="492" type="line"/>
      <point x="284" y="436" type="line"/>
      <point x="320" y="436"/>
      <point x="332" y="427"/>
      <point x="332" y="374" type="curve" smooth="yes"/>
      <point x="332" y="230" type="line" smooth="yes"/>
      <point x="332" y="138"/>
      <point x="317" y="80"/>
      <point x="278" y="80" type="curve" smooth="yes"/>
      <point x="243" y="80"/>
      <point x="233" y="137"/>
      <point x="233" y="222" type="curve" smooth="yes"/>
      <point x="233" y="492" type="line"/>
      <point x="22" y="492" type="line"/>
      <point x="22" y="436" type="line"/>
      <point x="65" y="436"/>
      <point x="70" y="428"/>
      <point x="70" y="365" type="curve" smooth="yes"/>
      <point x="70" y="188" type="line" smooth="yes"/>
      <point x="70" y="54"/>
      <point x="110" y="-10"/>
    </contour>
  </outline>
</glyph>
<glyph name="uni057E" format="2">
  <advance width="577"/>
  <unicode hex="057E"/>
  <note>
uni057E
</note>
  <outline>
    <contour>
      <point x="212" y="-10" type="curve" smooth="yes"/>
      <point x="271" y="-10"/>
      <point x="308" y="17"/>
      <point x="332" y="69" type="curve"/>
      <point x="336" y="69" type="line"/>
      <point x="334" y="46"/>
      <point x="332" y="23"/>
      <point x="332" y="0" type="curve" smooth="yes"/>
      <point x="332" y="-240" type="line"/>
      <point x="495" y="-240" type="line"/>
      <point x="495" y="760" type="line"/>
      <point x="284" y="760" type="line"/>
      <point x="284" y="704" type="line"/>
      <point x="320" y="704"/>
      <point x="332" y="695"/>
      <point x="332" y="642" type="curve" smooth="yes"/>
      <point x="332" y="230" type="line" smooth="yes"/>
      <point x="332" y="138"/>
      <point x="317" y="80"/>
      <point x="278" y="80" type="curve" smooth="yes"/>
      <point x="243" y="80"/>
      <point x="233" y="137"/>
      <point x="233" y="222" type="curve" smooth="yes"/>
      <point x="233" y="492" type="line"/>
      <point x="22" y="492" type="line"/>
      <point x="22" y="436" type="line"/>
      <point x="65" y="436"/>
      <point x="70" y="428"/>
      <point x="70" y="365" type="curve" smooth="yes"/>
      <point x="70" y="188" type="line" smooth="yes"/>
      <point x="70" y="54"/>
      <point x="110" y="-10"/>
    </contour>
    <contour>
      <point x="378" y="-240" type="line"/>
      <point x="597" y="-240" type="line"/>
      <point x="597" y="-177" type="line"/>
      <point x="378" y="-177" type="line"/>
    </contour>
  </outline>
</glyph>
<glyph name="uni057F" format="2">
  <advance width="827"/>
  <unicode hex="057F"/>
  <note>
uni057F
</note>
  <outline>
    <contour>
      <point x="757" y="126" type="curve" smooth="yes"/>
      <point x="757" y="309" type="line" smooth="yes"/>
      <point x="757" y="444"/>
      <point x="711" y="502"/>
      <point x="622" y="502" type="curve" smooth="yes"/>
      <point x="549" y="502"/>
      <point x="517" y="467"/>
      <point x="496" y="419" type="curve"/>
      <point x="492" y="419" type="line"/>
      <point x="481" y="492" type="line"/>
      <point x="280" y="492" type="line"/>
      <point x="280" y="436" type="line"/>
      <point x="322" y="436"/>
      <point x="332" y="426"/>
      <point x="332" y="372" type="curve" smooth="yes"/>
      <point x="332" y="230" type="line" smooth="yes"/>
      <point x="332" y="138"/>
      <point x="317" y="80"/>
      <point x="278" y="80" type="curve" smooth="yes"/>
      <point x="243" y="80"/>
      <point x="233" y="137"/>
      <point x="233" y="222" type="curve" smooth="yes"/>
      <point x="233" y="492" type="line"/>
      <point x="22" y="492" type="line"/>
      <point x="22" y="436" type="line"/>
      <point x="65" y="436"/>
      <point x="70" y="428"/>
      <point x="70" y="365" type="curve" smooth="yes"/>
      <point x="70" y="188" type="line" smooth="yes"/>
      <point x="70" y="54"/>
      <point x="110" y="-10"/>
      <point x="212" y="-10" type="curve" smooth="yes"/>
      <point x="271" y="-10"/>
      <point x="308" y="17"/>
      <point x="332" y="69" type="curve"/>
      <point x="336" y="69" type="line"/>
      <point x="360" y="0" type="line"/>
      <point x="543" y="0" type="line"/>
      <point x="543" y="56" type="line"/>
      <point x="499" y="56"/>
      <point x="495" y="61"/>
      <point x="495" y="118" type="curve" smooth="yes"/>
      <point x="495" y="258" type="line" smooth="yes"/>
      <point x="495" y="338"/>
      <point x="508" y="412"/>
      <point x="550" y="412" type="curve" smooth="yes"/>
      <point x="586" y="412"/>
      <point x="594" y="362"/>
      <point x="594" y="277" type="curve" smooth="yes"/>
      <point x="594" y="0" type="line"/>
      <point x="805" y="0" type="line"/>
      <point x="805" y="56" type="line"/>
      <point x="763" y="56"/>
      <point x="757" y="64"/>
    </contour>
  </outline>
</glyph>
<glyph name="uni0581" format="2">
  <advance width="548"/>
  <unicode hex="0581"/>
  <note>
uni0581
</note>
  <outline>
    <contour>
      <point x="237" y="-240" type="curve" smooth="yes"/>
      <point x="402" y="-240"/>
      <point x="486" y="-141"/>
      <point x="486" y="18" type="curve" smooth="yes"/>
      <point x="486" y="492" type="line"/>
      <point x="359" y="492" type="line"/>
      <point x="339" y="423" type="line"/>
      <point x="331" y="423" type="line"/>
      <point x="302" y="479"/>
      <point x="264" y="502"/>
      <point x="205" y="502" type="curve" smooth="yes"/>
      <point x="98" y="502"/>
      <point x="34" y="411"/>
      <point x="34" y="248" type="curve" smooth="yes"/>
      <point x="34" y="82"/>
      <point x="99" y="-9"/>
      <point x="199" y="-9" type="curve" smooth="yes"/>
      <point x="258" y="-9"/>
      <point x="290" y="9"/>
      <point x="322" y="70" type="curve"/>
      <point x="330" y="70" type="line"/>
      <point x="323" y="40"/>
      <point x="323" y="8"/>
      <point x="323" y="-17" type="curve" smooth="yes"/>
      <point x="323" y="-33" type="line" smooth="yes"/>
      <point x="323" y="-125"/>
      <point x="294" y="-176"/>
      <point x="233" y="-176" type="curve" smooth="yes"/>
      <point x="177" y="-176"/>
      <point x="154" y="-140"/>
      <point x="154" y="-46" type="curve"/>
      <point x="81" y="-47"/>
      <point x="50" y="-74"/>
      <point x="50" y="-120" type="curve" smooth="yes"/>
      <point x="50" y="-208"/>
      <point x="124" y="-240"/>
    </contour>
    <contour>
      <point x="260" y="70" type="curve" smooth="yes"/>
      <point x="207" y="70"/>
      <point x="200" y="159"/>
      <point x="200" y="247" type="curve" smooth="yes"/>
      <point x="200" y="336"/>
      <point x="205" y="423"/>
      <point x="257" y="423" type="curve" smooth="yes"/>
      <point x="305" y="423"/>
      <point x="323" y="376"/>
      <point x="323" y="247" type="curve" smooth="yes"/>
      <point x="323" y="135"/>
      <point x="312" y="70"/>
    </contour>
  </outline>
</glyph>
<glyph name="uni0582" format="2">
  <advance width="402"/>
  <unicode hex="0582"/>
  <note>
uni0582
</note>
  <outline>
    <contour>
      <point x="392" y="111" type="line"/>
      <point x="338" y="111" type="line"/>
      <point x="338" y="73"/>
      <point x="330" y="64"/>
      <point x="294" y="64" type="curve" smooth="yes"/>
      <point x="235" y="64" type="line"/>
      <point x="235" y="492" type="line"/>
      <point x="20" y="492" type="line"/>
      <point x="20" y="436" type="line"/>
      <point x="31" y="436" type="line" smooth="yes"/>
      <point x="65" y="436"/>
      <point x="72" y="430"/>
      <point x="72" y="387" type="curve" smooth="yes"/>
      <point x="72" y="0" type="line"/>
      <point x="392" y="0" type="line"/>
    </contour>
  </outline>
</glyph>
<glyph name="uni0583" format="2">
  <advance width="827"/>
  <unicode hex="0583"/>
  <note>
uni0583
</note>
  <outline>
    <contour>
      <point x="757" y="126" type="curve" smooth="yes"/>
      <point x="757" y="309" type="line" smooth="yes"/>
      <point x="757" y="444"/>
      <point x="711" y="502"/>
      <point x="622" y="502" type="curve" smooth="yes"/>
      <point x="549" y="502"/>
      <point x="517" y="467"/>
      <point x="496" y="419" type="curve"/>
      <point x="492" y="419" type="line"/>
      <point x="494" y="443"/>
      <point x="495" y="469"/>
      <point x="495" y="493" type="curve" smooth="yes"/>
      <point x="495" y="760" type="line"/>
      <point x="280" y="760" type="line"/>
      <point x="280" y="704" type="line"/>
      <point x="322" y="704"/>
      <point x="332" y="694"/>
      <point x="332" y="640" type="curve" smooth="yes"/>
      <point x="332" y="230" type="line" smooth="yes"/>
      <point x="332" y="138"/>
      <point x="317" y="80"/>
      <point x="278" y="80" type="curve" smooth="yes"/>
      <point x="243" y="80"/>
      <point x="233" y="137"/>
      <point x="233" y="222" type="curve" smooth="yes"/>
      <point x="233" y="492" type="line"/>
      <point x="22" y="492" type="line"/>
      <point x="22" y="436" type="line"/>
      <point x="65" y="436"/>
      <point x="70" y="428"/>
      <point x="70" y="365" type="curve" smooth="yes"/>
      <point x="70" y="188" type="line" smooth="yes"/>
      <point x="70" y="54"/>
      <point x="110" y="-10"/>
      <point x="212" y="-10" type="curve" smooth="yes"/>
      <point x="271" y="-10"/>
      <point x="308" y="17"/>
      <point x="332" y="69" type="curve"/>
      <point x="336" y="69" type="line"/>
      <point x="335" y="46"/>
      <point x="332" y="24"/>
      <point x="332" y="0" type="curve" smooth="yes"/>
      <point x="332" y="-240" type="line"/>
      <point x="546" y="-240" type="line"/>
      <point x="546" y="-184" type="line"/>
      <point x="504" y="-184"/>
      <point x="495" y="-174"/>
      <point x="495" y="-119" type="curve" smooth="yes"/>
      <point x="495" y="258" type="line" smooth="yes"/>
      <point x="495" y="338"/>
      <point x="508" y="412"/>
      <point x="550" y="412" type="curve" smooth="yes"/>
      <point x="586" y="412"/>
      <point x="594" y="362"/>
      <point x="594" y="277" type="curve" smooth="yes"/>
      <point x="594" y="0" type="line"/>
      <point x="805" y="0" type="line"/>
      <point x="805" y="56" type="line"/>
      <point x="763" y="56"/>
      <point x="757" y="64"/>
    </contour>
  </outline>
</glyph>
<glyph name="uni0584" format="2">
  <advance width="558"/>
  <unicode hex="0584"/>
  <note>
uni0584
</note>
  <outline>
    <contour>
      <point x="353" y="502" type="curve" smooth="yes"/>
      <point x="294" y="502"/>
      <point x="256" y="479"/>
      <point x="227" y="423" type="curve"/>
      <point x="219" y="423" type="line"/>
      <point x="199" y="492" type="line"/>
      <point x="20" y="492" type="line"/>
      <point x="20" y="436" type="line"/>
      <point x="62" y="436"/>
      <point x="72" y="426"/>
      <point x="72" y="386" type="curve" smooth="yes"/>
      <point x="72" y="-240" type="line"/>
      <point x="283" y="-240" type="line"/>
      <point x="283" y="-184" type="line"/>
      <point x="254" y="-184"/>
      <point x="235" y="-177"/>
      <point x="235" y="-133" type="curve" smooth="yes"/>
      <point x="235" y="-72" type="line" smooth="yes"/>
      <point x="235" y="-47"/>
      <point x="235" y="-15"/>
      <point x="228" y="55" type="curve"/>
      <point x="236" y="55" type="line"/>
      <point x="268" y="2"/>
      <point x="300" y="-9"/>
      <point x="359" y="-9" type="curve" smooth="yes"/>
      <point x="459" y="-9"/>
      <point x="524" y="82"/>
      <point x="524" y="248" type="curve" smooth="yes"/>
      <point x="524" y="411"/>
      <point x="460" y="502"/>
    </contour>
    <contour>
      <point x="298" y="67" type="curve" smooth="yes"/>
      <point x="246" y="67"/>
      <point x="235" y="135"/>
      <point x="235" y="247" type="curve" smooth="yes"/>
      <point x="235" y="376"/>
      <point x="253" y="426"/>
      <point x="301" y="426" type="curve" smooth="yes"/>
      <point x="353" y="426"/>
      <point x="358" y="346"/>
      <point x="358" y="247" type="curve" smooth="yes"/>
      <point x="358" y="149"/>
      <point x="351" y="67"/>
    </contour>
    <contour>
      <point x="10" y="-136" type="line"/>
      <point x="488" y="-136" type="line"/>
      <point x="488" y="-72" type="line"/>
      <point x="10" y="-72" type="line"/>
    </contour>
  </outline>
</glyph>
<glyph name="uni0585" format="2">
  <advance width="533"/>
  <unicode hex="0585"/>
  <note>
uni0585
</note>
  <anchor x="266" y="492" name="top"/>
  <outline>
    <contour>
      <point x="265" y="-10" type="curve" smooth="yes"/>
      <point x="419" y="-10"/>
      <point x="499" y="74"/>
      <point x="499" y="246" type="curve" smooth="yes"/>
      <point x="499" y="418"/>
      <point x="411" y="502"/>
      <point x="268" y="502" type="curve" smooth="yes"/>
      <point x="114" y="502"/>
      <point x="34" y="418"/>
      <point x="34" y="246" type="curve" smooth="yes"/>
      <point x="34" y="74"/>
      <point x="121" y="-10"/>
    </contour>
    <contour>
      <point x="267" y="56" type="curve" smooth="yes"/>
      <point x="217" y="56"/>
      <point x="200" y="122"/>
      <point x="200" y="246" type="curve" smooth="yes"/>
      <point x="200" y="371"/>
      <point x="216" y="435"/>
      <point x="266" y="435" type="curve" smooth="yes"/>
      <point x="316" y="435"/>
      <point x="334" y="371"/>
      <point x="334" y="246" type="curve" smooth="yes"/>
      <point x="334" y="122"/>
      <point x="317" y="56"/>
    </contour>
  </outline>
</glyph>
<glyph name="uni0586" format="2">
  <advance width="662"/>
  <unicode hex="0586"/>
  <note>
uni0586
</note>
  <outline>
    <contour>
      <point x="301" y="-10" type="curve" smooth="yes"/>
      <point x="514" y="-10"/>
      <point x="630" y="77"/>
      <point x="630" y="194" type="curve" smooth="yes"/>
      <point x="630" y="320"/>
      <point x="576" y="356"/>
      <point x="331" y="431" type="curve" smooth="yes"/>
      <point x="194" y="473"/>
      <point x="175" y="508"/>
      <point x="175" y="587" type="curve" smooth="yes"/>
      <point x="175" y="665"/>
      <point x="200" y="697"/>
      <point x="236" y="697" type="curve"/>
      <point x="236" y="760" type="line"/>
      <point x="108" y="760"/>
      <point x="21" y="686"/>
      <point x="21" y="586" type="curve" smooth="yes"/>
      <point x="21" y="461"/>
      <point x="92" y="403"/>
      <point x="307" y="347" type="curve"/>
      <point x="429" y="315"/>
      <point x="467" y="285"/>
      <point x="467" y="194" type="curve" smooth="yes"/>
      <point x="467" y="95"/>
      <point x="411" y="54"/>
      <point x="307" y="54" type="curve" smooth="yes"/>
      <point x="194" y="54"/>
      <point x="134" y="101"/>
      <point x="134" y="229" type="curve"/>
      <point x="75" y="229"/>
      <point x="18" y="198"/>
      <point x="18" y="145" type="curve" smooth="yes"/>
      <point x="18" y="51"/>
      <point x="120" y="-10"/>
    </contour>
    <contour>
      <point x="236" y="-240" type="line"/>
      <point x="447" y="-240" type="line"/>
      <point x="447" y="-185" type="line"/>
      <point x="401" y="-185"/>
      <point x="395" y="-175"/>
      <point x="395" y="-123" type="curve" smooth="yes"/>
      <point x="395" y="760" type="line"/>
      <point x="236" y="760" type="line"/>
    </contour>
  </outline>
</glyph>
<glyph name="uni0587" format="2">
  <advance width="604"/>
  <unicode hex="0587"/>
  <note>
uni0587
</note>
  <outline>
    <contour>
      <point x="212" y="-10" type="curve" smooth="yes"/>
      <point x="271" y="-10"/>
      <point x="308" y="17"/>
      <point x="332" y="69" type="curve"/>
      <point x="336" y="69" type="line"/>
      <point x="360" y="0" type="line"/>
      <point x="495" y="0" type="line"/>
      <point x="495" y="492" type="line"/>
      <point x="284" y="492" type="line"/>
      <point x="284" y="436" type="line"/>
      <point x="320" y="436"/>
      <point x="332" y="427"/>
      <point x="332" y="374" type="curve" smooth="yes"/>
      <point x="332" y="230" type="line" smooth="yes"/>
      <point x="332" y="138"/>
      <point x="317" y="80"/>
      <point x="278" y="80" type="curve" smooth="yes"/>
      <point x="243" y="80"/>
      <point x="233" y="137"/>
      <point x="233" y="222" type="curve" smooth="yes"/>
      <point x="233" y="760" type="line"/>
      <point x="22" y="760" type="line"/>
      <point x="22" y="704" type="line"/>
      <point x="65" y="704"/>
      <point x="70" y="696"/>
      <point x="70" y="633" type="curve" smooth="yes"/>
      <point x="70" y="188" type="line" smooth="yes"/>
      <point x="70" y="54"/>
      <point x="110" y="-10"/>
    </contour>
    <contour>
      <point x="452" y="0" type="line"/>
      <point x="600" y="0" type="line"/>
      <point x="600" y="63" type="line"/>
      <point x="452" y="63" type="line"/>
    </contour>
  </outline>
</glyph>
<glyph name="uni0588" format="2">
  <advance width="333"/>
  <unicode hex="0588"/>
  <note>
uni0575
</note>
  <outline>
    <contour>
      <point x="85" y="137" type="line" smooth="yes"/>
      <point x="85" y="27"/>
      <point x="119" y="-10"/>
      <point x="119" y="-87" type="curve" smooth="yes"/>
      <point x="119" y="-141"/>
      <point x="99" y="-177"/>
      <point x="46" y="-177" type="curve" smooth="yes"/>
      <point x="40" y="-177" type="line"/>
      <point x="40" y="-240" type="line"/>
      <point x="58" y="-240" type="line" smooth="yes"/>
      <point x="221" y="-240"/>
      <point x="282" y="-183"/>
      <point x="282" y="-82" type="curve" smooth="yes"/>
      <point x="282" y="-4"/>
      <point x="248" y="30"/>
      <point x="248" y="137" type="curve" smooth="yes"/>
      <point x="248" y="492" type="line"/>
      <point x="33" y="492" type="line"/>
      <point x="33" y="436" type="line"/>
      <point x="43" y="436" type="line" smooth="yes"/>
      <point x="80" y="436"/>
      <point x="85" y="425"/>
      <point x="85" y="365" type="curve" smooth="yes"/>
    </contour>
    <contour>
      <point x="5" y="144" type="line"/>
      <point x="5" y="80" type="line"/>
      <point x="328" y="80" type="line"/>
      <point x="328" y="144" type="line"/>
    </contour>
  </outline>
</glyph>
<glyph name="uni0589" format="2">
  <advance width="264"/>
  <unicode hex="0589"/>
  <note>
uni0589
</note>
  <outline>
    <contour>
      <point x="132" y="338" type="curve" smooth="yes"/>
      <point x="174" y="338"/>
      <point x="212" y="358"/>
      <point x="212" y="420" type="curve" smooth="yes"/>
      <point x="212" y="482"/>
      <point x="174" y="502"/>
      <point x="132" y="502" type="curve" smooth="yes"/>
      <point x="87" y="502"/>
      <point x="52" y="482"/>
      <point x="52" y="420" type="curve" smooth="yes"/>
      <point x="52" y="358"/>
      <point x="87" y="338"/>
    </contour>
    <contour>
      <point x="132" y="-8" type="curve" smooth="yes"/>
      <point x="174" y="-8"/>
      <point x="212" y="12"/>
      <point x="212" y="74" type="curve" smooth="yes"/>
      <point x="212" y="136"/>
      <point x="174" y="156"/>
      <point x="132" y="156" type="curve" smooth="yes"/>
      <point x="87" y="156"/>
      <point x="52" y="136"/>
      <point x="52" y="74" type="curve" smooth="yes"/>
      <point x="52" y="12"/>
      <point x="87" y="-8"/>
    </contour>
  </outline>
</glyph>
<glyph name="uni058A" format="2">
  <advance width="423"/>
  <unicode hex="058A"/>
  <note>
uni058A
</note>
  <outline>
    <contour>
      <point x="166" y="178" type="curve" smooth="yes"/>
      <point x="243" y="178"/>
      <point x="313" y="199"/>
      <point x="381" y="232" type="curve"/>
      <point x="363" y="299" type="line"/>
      <point x="309" y="286"/>
      <point x="260" y="279"/>
      <point x="218" y="279" type="curve" smooth="yes"/>
      <point x="183" y="279"/>
      <point x="170" y="300"/>
      <point x="170" y="350" type="curve"/>
      <point x="46" y="350" type="line"/>
      <point x="46" y="230"/>
      <point x="73" y="178"/>
    </contour>
  </outline>
</glyph>
<glyph name="uni058F" format="2">
  <advance width="672"/>
  <unicode hex="058F"/>
  <note>
uni058F
</note>
  <outline>
    <contour>
      <point x="48" y="363" type="line"/>
      <point x="219" y="363" type="line"/>
      <point x="219" y="468" type="line" smooth="yes"/>
      <point x="219" y="553"/>
      <point x="251" y="606"/>
      <point x="302" y="606" type="curve" smooth="yes"/>
      <point x="358" y="606"/>
      <point x="389" y="557"/>
      <point x="389" y="467" type="curve" smooth="yes"/>
      <point x="389" y="0" type="line"/>
      <point x="594" y="0" type="line"/>
      <point x="594" y="56" type="line"/>
      <point x="562" y="56"/>
      <point x="556" y="65"/>
      <point x="556" y="116" type="curve" smooth="yes"/>
      <point x="556" y="441" type="line" smooth="yes"/>
      <point x="556" y="588"/>
      <point x="464" y="674"/>
      <point x="301" y="674" type="curve" smooth="yes"/>
      <point x="142" y="674"/>
      <point x="48" y="592"/>
      <point x="48" y="441" type="curve" smooth="yes"/>
    </contour>
    <contour>
      <point x="291" y="292" type="line"/>
      <point x="652" y="292" type="line"/>
      <point x="652" y="356" type="line"/>
      <point x="291" y="356" type="line"/>
    </contour>
    <contour>
      <point x="291" y="177" type="line"/>
      <point x="652" y="177" type="line"/>
      <point x="652" y="241" type="line"/>
      <point x="291" y="241" type="line"/>
    </contour>
  </outline>
</glyph>
<glyph name="uniFB13" format="2">
  <advance width="1112"/>
  <unicode hex="FB13"/>
  <note>
uniFB13
</note>
  <outline>
    <contour>
      <point x="495" y="118" type="curve" smooth="yes"/>
      <point x="495" y="387" type="line" smooth="yes"/>
      <point x="495" y="455"/>
      <point x="483" y="490"/>
      <point x="459" y="517" type="curve" smooth="yes"/>
      <point x="404" y="579"/>
      <point x="396" y="606"/>
      <point x="396" y="644" type="curve" smooth="yes"/>
      <point x="396" y="682"/>
      <point x="413" y="696"/>
      <point x="442" y="696" type="curve" smooth="yes"/>
      <point x="490" y="696"/>
      <point x="563" y="676"/>
      <point x="645" y="640" type="curve"/>
      <point x="746" y="706" type="line"/>
      <point x="645" y="743"/>
      <point x="539" y="760"/>
      <point x="433" y="760" type="curve" smooth="yes"/>
      <point x="339" y="760"/>
      <point x="243" y="725"/>
      <point x="243" y="610" type="curve" smooth="yes"/>
      <point x="243" y="567"/>
      <point x="266" y="526"/>
      <point x="299" y="482" type="curve" smooth="yes"/>
      <point x="322" y="452"/>
      <point x="332" y="417"/>
      <point x="332" y="376" type="curve" smooth="yes"/>
      <point x="332" y="230" type="line" smooth="yes"/>
      <point x="332" y="138"/>
      <point x="317" y="80"/>
      <point x="278" y="80" type="curve" smooth="yes"/>
      <point x="243" y="80"/>
      <point x="233" y="137"/>
      <point x="233" y="222" type="curve" smooth="yes"/>
      <point x="233" y="492" type="line"/>
      <point x="22" y="492" type="line"/>
      <point x="22" y="436" type="line"/>
      <point x="65" y="436"/>
      <point x="70" y="428"/>
      <point x="70" y="365" type="curve" smooth="yes"/>
      <point x="70" y="188" type="line" smooth="yes"/>
      <point x="70" y="54"/>
      <point x="110" y="-10"/>
      <point x="212" y="-10" type="curve" smooth="yes"/>
      <point x="271" y="-10"/>
      <point x="308" y="17"/>
      <point x="332" y="69" type="curve"/>
      <point x="336" y="69" type="line"/>
      <point x="360" y="0" type="line"/>
      <point x="543" y="0" type="line"/>
      <point x="543" y="56" type="line"/>
      <point x="499" y="56"/>
      <point x="495" y="61"/>
    </contour>
    <contour>
      <point x="1040" y="118" type="curve" smooth="yes"/>
      <point x="1040" y="492" type="line"/>
      <point x="839" y="492" type="line"/>
      <point x="839" y="436" type="line"/>
      <point x="870" y="436"/>
      <point x="877" y="427"/>
      <point x="877" y="374" type="curve" smooth="yes"/>
      <point x="877" y="230" type="line" smooth="yes"/>
      <point x="877" y="133"/>
      <point x="853" y="80"/>
      <point x="805" y="80" type="curve" smooth="yes"/>
      <point x="762" y="80"/>
      <point x="744" y="127"/>
      <point x="744" y="222" type="curve" smooth="yes"/>
      <point x="744" y="330"/>
      <point x="756" y="397"/>
      <point x="795" y="507" type="curve"/>
      <point x="699" y="523" type="line"/>
      <point x="615" y="397"/>
      <point x="581" y="307"/>
      <point x="581" y="188" type="curve" smooth="yes"/>
      <point x="581" y="54"/>
      <point x="630" y="-10"/>
      <point x="741" y="-10" type="curve" smooth="yes"/>
      <point x="805" y="-10"/>
      <point x="851" y="17"/>
      <point x="877" y="69" type="curve"/>
      <point x="881" y="69" type="line"/>
      <point x="905" y="0" type="line"/>
      <point x="1088" y="0" type="line"/>
      <point x="1088" y="56" type="line"/>
      <point x="1044" y="56"/>
      <point x="1040" y="61"/>
    </contour>
    <contour>
      <point x="746" y="706" type="curve"/>
      <point x="603" y="723" type="line"/>
      <point x="579" y="698"/>
      <point x="566" y="664"/>
      <point x="566" y="629" type="curve" smooth="yes"/>
      <point x="566" y="556"/>
      <point x="609" y="503"/>
      <point x="687" y="485" type="curve"/>
      <point x="795" y="507" type="line"/>
      <point x="795" y="521" type="line"/>
      <point x="717" y="536"/>
      <point x="705" y="567"/>
      <point x="705" y="612" type="curve" smooth="yes"/>
      <point x="705" y="646"/>
      <point x="715" y="676"/>
    </contour>
  </outline>
</glyph>
<glyph name="uniFB14" format="2">
  <advance width="1092"/>
  <unicode hex="FB14"/>
  <note>
uniFB14
</note>
  <outline>
    <contour>
      <point x="243" y="610" type="curve" smooth="yes"/>
      <point x="243" y="567"/>
      <point x="266" y="526"/>
      <point x="299" y="482" type="curve" smooth="yes"/>
      <point x="322" y="452"/>
      <point x="332" y="417"/>
      <point x="332" y="376" type="curve" smooth="yes"/>
      <point x="332" y="230" type="line" smooth="yes"/>
      <point x="332" y="138"/>
      <point x="317" y="80"/>
      <point x="278" y="80" type="curve" smooth="yes"/>
      <point x="243" y="80"/>
      <point x="233" y="137"/>
      <point x="233" y="222" type="curve" smooth="yes"/>
      <point x="233" y="492" type="line"/>
      <point x="22" y="492" type="line"/>
      <point x="22" y="436" type="line"/>
      <point x="65" y="436"/>
      <point x="70" y="428"/>
      <point x="70" y="365" type="curve" smooth="yes"/>
      <point x="70" y="188" type="line" smooth="yes"/>
      <point x="70" y="54"/>
      <point x="110" y="-10"/>
      <point x="212" y="-10" type="curve" smooth="yes"/>
      <point x="271" y="-10"/>
      <point x="308" y="17"/>
      <point x="332" y="69" type="curve"/>
      <point x="336" y="69" type="line"/>
      <point x="360" y="0" type="line"/>
      <point x="543" y="0" type="line"/>
      <point x="543" y="56" type="line"/>
      <point x="499" y="56"/>
      <point x="495" y="61"/>
      <point x="495" y="118" type="curve" smooth="yes"/>
      <point x="495" y="387" type="line" smooth="yes"/>
      <point x="495" y="455"/>
      <point x="483" y="490"/>
      <point x="459" y="517" type="curve" smooth="yes"/>
      <point x="404" y="579"/>
      <point x="396" y="606"/>
      <point x="396" y="644" type="curve" smooth="yes"/>
      <point x="396" y="682"/>
      <point x="413" y="696"/>
      <point x="442" y="696" type="curve" smooth="yes"/>
      <point x="510" y="696"/>
      <point x="576" y="676"/>
      <point x="658" y="640" type="curve"/>
      <point x="759" y="706" type="line"/>
      <point x="638" y="743"/>
      <point x="539" y="760"/>
      <point x="433" y="760" type="curve" smooth="yes"/>
      <point x="339" y="760"/>
      <point x="243" y="725"/>
    </contour>
    <contour>
      <point x="1020" y="324" type="line"/>
      <point x="858" y="324" type="line"/>
      <point x="858" y="230" type="line" smooth="yes"/>
      <point x="858" y="138"/>
      <point x="843" y="80"/>
      <point x="804" y="80" type="curve" smooth="yes"/>
      <point x="769" y="80"/>
      <point x="759" y="137"/>
      <point x="759" y="222" type="curve" smooth="yes"/>
      <point x="759" y="706" type="line"/>
      <point x="595" y="683" type="line"/>
      <point x="595" y="188" type="line" smooth="yes"/>
      <point x="595" y="54"/>
      <point x="635" y="-10"/>
      <point x="737" y="-10" type="curve" smooth="yes"/>
      <point x="796" y="-10"/>
      <point x="834" y="17"/>
      <point x="858" y="69" type="curve"/>
      <point x="862" y="69" type="line"/>
      <point x="886" y="0" type="line"/>
      <point x="1068" y="0" type="line"/>
      <point x="1068" y="56" type="line"/>
      <point x="1024" y="56"/>
      <point x="1020" y="61"/>
      <point x="1020" y="118" type="curve" smooth="yes"/>
    </contour>
    <contour>
      <point x="718" y="428" type="line"/>
      <point x="1046" y="428" type="line"/>
      <point x="1046" y="492" type="line"/>
      <point x="718" y="492" type="line"/>
    </contour>
  </outline>
</glyph>
<glyph name="uniFB15" format="2">
  <advance width="1090"/>
  <unicode hex="FB15"/>
  <note>
uniFB15
</note>
  <outline>
    <contour>
      <point x="243" y="610" type="curve" smooth="yes"/>
      <point x="243" y="567"/>
      <point x="266" y="526"/>
      <point x="299" y="482" type="curve" smooth="yes"/>
      <point x="322" y="452"/>
      <point x="332" y="417"/>
      <point x="332" y="376" type="curve" smooth="yes"/>
      <point x="332" y="230" type="line" smooth="yes"/>
      <point x="332" y="138"/>
      <point x="317" y="80"/>
      <point x="278" y="80" type="curve" smooth="yes"/>
      <point x="243" y="80"/>
      <point x="233" y="137"/>
      <point x="233" y="222" type="curve" smooth="yes"/>
      <point x="233" y="492" type="line"/>
      <point x="22" y="492" type="line"/>
      <point x="22" y="436" type="line"/>
      <point x="65" y="436"/>
      <point x="70" y="428"/>
      <point x="70" y="365" type="curve" smooth="yes"/>
      <point x="70" y="188" type="line" smooth="yes"/>
      <point x="70" y="54"/>
      <point x="110" y="-10"/>
      <point x="212" y="-10" type="curve" smooth="yes"/>
      <point x="271" y="-10"/>
      <point x="308" y="17"/>
      <point x="332" y="69" type="curve"/>
      <point x="336" y="69" type="line"/>
      <point x="360" y="0" type="line"/>
      <point x="543" y="0" type="line"/>
      <point x="543" y="56" type="line"/>
      <point x="499" y="56"/>
      <point x="495" y="61"/>
      <point x="495" y="118" type="curve" smooth="yes"/>
      <point x="495" y="387" type="line" smooth="yes"/>
      <point x="495" y="455"/>
      <point x="483" y="490"/>
      <point x="459" y="517" type="curve" smooth="yes"/>
      <point x="404" y="579"/>
      <point x="396" y="606"/>
      <point x="396" y="644" type="curve" smooth="yes"/>
      <point x="396" y="682"/>
      <point x="413" y="696"/>
      <point x="442" y="696" type="curve" smooth="yes"/>
      <point x="506" y="696"/>
      <point x="575" y="676"/>
      <point x="657" y="640" type="curve"/>
      <point x="758" y="706" type="line"/>
      <point x="657" y="743"/>
      <point x="555" y="760"/>
      <point x="445" y="760" type="curve" smooth="yes"/>
      <point x="329" y="760"/>
      <point x="243" y="725"/>
    </contour>
    <contour>
      <point x="1068" y="56" type="line"/>
      <point x="1026" y="56"/>
      <point x="1020" y="64"/>
      <point x="1020" y="126" type="curve" smooth="yes"/>
      <point x="1020" y="309" type="line" smooth="yes"/>
      <point x="1020" y="444"/>
      <point x="974" y="502"/>
      <point x="885" y="502" type="curve" smooth="yes"/>
      <point x="812" y="502"/>
      <point x="780" y="467"/>
      <point x="759" y="419" type="curve"/>
      <point x="755" y="419" type="line"/>
      <point x="757" y="443"/>
      <point x="758" y="469"/>
      <point x="758" y="493" type="curve" smooth="yes"/>
      <point x="758" y="706" type="line"/>
      <point x="595" y="670" type="line"/>
      <point x="595" y="-240" type="line"/>
      <point x="809" y="-240" type="line"/>
      <point x="809" y="-184" type="line"/>
      <point x="767" y="-184"/>
      <point x="758" y="-174"/>
      <point x="758" y="-119" type="curve" smooth="yes"/>
      <point x="758" y="258" type="line" smooth="yes"/>
      <point x="758" y="338"/>
      <point x="771" y="412"/>
      <point x="813" y="412" type="curve" smooth="yes"/>
      <point x="849" y="412"/>
      <point x="857" y="362"/>
      <point x="857" y="277" type="curve" smooth="yes"/>
      <point x="857" y="0" type="line"/>
      <point x="1068" y="0" type="line"/>
    </contour>
  </outline>
</glyph>
<glyph name="uniFB16" format="2">
  <advance width="1112"/>
  <unicode hex="FB16"/>
  <note>
uniFB16
</note>
  <outline>
    <contour>
      <point x="332" y="-240" type="line"/>
      <point x="495" y="-240" type="line"/>
      <point x="495" y="644" type="line" smooth="yes"/>
      <point x="495" y="682"/>
      <point x="505" y="696"/>
      <point x="522" y="696" type="curve" smooth="yes"/>
      <point x="561" y="696"/>
      <point x="602" y="676"/>
      <point x="645" y="640" type="curve"/>
      <point x="746" y="706" type="line"/>
      <point x="657" y="743"/>
      <point x="583" y="760"/>
      <point x="494" y="760" type="curve" smooth="yes"/>
      <point x="401" y="760"/>
      <point x="332" y="725"/>
      <point x="332" y="610" type="curve" smooth="yes"/>
      <point x="332" y="280" type="line" smooth="yes"/>
      <point x="332" y="168"/>
      <point x="317" y="80"/>
      <point x="278" y="80" type="curve" smooth="yes"/>
      <point x="243" y="80"/>
      <point x="233" y="137"/>
      <point x="233" y="222" type="curve" smooth="yes"/>
      <point x="233" y="492" type="line"/>
      <point x="22" y="492" type="line"/>
      <point x="22" y="436" type="line"/>
      <point x="65" y="436"/>
      <point x="70" y="428"/>
      <point x="70" y="365" type="curve" smooth="yes"/>
      <point x="70" y="188" type="line" smooth="yes"/>
      <point x="70" y="54"/>
      <point x="110" y="-10"/>
      <point x="212" y="-10" type="curve" smooth="yes"/>
      <point x="271" y="-10"/>
      <point x="308" y="17"/>
      <point x="332" y="69" type="curve"/>
      <point x="336" y="69" type="line"/>
      <point x="334" y="46"/>
      <point x="332" y="23"/>
      <point x="332" y="0" type="curve" smooth="yes"/>
    </contour>
    <contour>
      <point x="378" y="-240" type="line"/>
      <point x="613" y="-240" type="line"/>
      <point x="613" y="-177" type="line"/>
      <point x="378" y="-177" type="line"/>
    </contour>
    <contour>
      <point x="741" y="-10" type="curve" smooth="yes"/>
      <point x="805" y="-10"/>
      <point x="851" y="17"/>
      <point x="877" y="69" type="curve"/>
      <point x="881" y="69" type="line"/>
      <point x="905" y="0" type="line"/>
      <point x="1088" y="0" type="line"/>
      <point x="1088" y="56" type="line"/>
      <point x="1044" y="56"/>
      <point x="1040" y="61"/>
      <point x="1040" y="118" type="curve" smooth="yes"/>
      <point x="1040" y="492" type="line"/>
      <point x="839" y="492" type="line"/>
      <point x="839" y="436" type="line"/>
      <point x="870" y="436"/>
      <point x="877" y="427"/>
      <point x="877" y="374" type="curve" smooth="yes"/>
      <point x="877" y="230" type="line" smooth="yes"/>
      <point x="877" y="133"/>
      <point x="853" y="80"/>
      <point x="805" y="80" type="curve" smooth="yes"/>
      <point x="762" y="80"/>
      <point x="744" y="127"/>
      <point x="744" y="222" type="curve" smooth="yes"/>
      <point x="744" y="330"/>
      <point x="756" y="397"/>
      <point x="795" y="507" type="curve"/>
      <point x="699" y="523" type="line"/>
      <point x="615" y="397"/>
      <point x="581" y="307"/>
      <point x="581" y="188" type="curve" smooth="yes"/>
      <point x="581" y="54"/>
      <point x="630" y="-10"/>
    </contour>
    <contour>
      <point x="687" y="485" type="curve"/>
      <point x="795" y="507" type="line"/>
      <point x="795" y="521" type="line"/>
      <point x="717" y="536"/>
      <point x="705" y="567"/>
      <point x="705" y="612" type="curve" smooth="yes"/>
      <point x="705" y="646"/>
      <point x="715" y="676"/>
      <point x="746" y="706" type="curve"/>
      <point x="603" y="723" type="line"/>
      <point x="579" y="698"/>
      <point x="566" y="664"/>
      <point x="566" y="629" type="curve" smooth="yes"/>
      <point x="566" y="556"/>
      <point x="609" y="503"/>
    </contour>
  </outline>
</glyph>
